<?xml version="1.0" encoding="UTF-8"?>
<svg version="1.1" xmlns="http://www.w3.org/2000/svg" width="280" height="131">
<path d="M0 0 C0 0.66 0 1.32 0 2 C-0.66 2 -1.32 2 -2 2 C-2.33 15.53 -2.66 29.06 -3 43 C-2.01 43 -1.02 43 0 43 C-0.33 42.01 -0.66 41.02 -1 40 C-1.01620515 37.55520688 -0.97529774 35.14748278 -0.87890625 32.70703125 C-0.84348976 31.64798836 -0.84348976 31.64798836 -0.80735779 30.56755066 C-0.73087055 28.31565493 -0.64678253 26.06411613 -0.5625 23.8125 C-0.50926432 22.28452259 -0.45652401 20.75652784 -0.40429688 19.22851562 C-0.27527576 15.48545165 -0.13943788 11.74268981 0 8 C-0.66 8 -1.32 8 -2 8 C-2 7.01 -2 6.02 -2 5 C-1.01 4.67 -0.02 4.34 1 4 C1.33 3.01 1.66 2.02 2 1 C5.74993479 0.94188227 9.49975352 0.90636407 13.25 0.875 C14.84521484 0.84986328 14.84521484 0.84986328 16.47265625 0.82421875 C18.00986328 0.81455078 18.00986328 0.81455078 19.578125 0.8046875 C20.52075195 0.79421387 21.46337891 0.78374023 22.43457031 0.77294922 C25.09951941 1.00880787 26.71863092 1.64338341 29 3 C27.2675 2.938125 27.2675 2.938125 25.5 2.875 C21.05518699 2.85912567 17.26275869 3.78206895 13 5 C13.56203125 4.84144531 14.1240625 4.68289062 14.703125 4.51953125 C21.44008396 2.9956953 27.28832285 3.57511754 33.40625 6.734375 C35.32951054 8.26167014 36.0575074 9.75686761 37 12 C36.67 12.33 36.34 12.66 36 13 C37.4540625 13.61875 37.4540625 13.61875 38.9375 14.25 C42 16 42 16 42.9375 17.75 C43.02494513 20.89802483 42.45241886 23.88333675 42 27 C41.91235713 30.33529824 41.93959595 33.66435416 42 37 C40.68 37 39.36 37 38 37 C38 37.66 38 38.32 38 39 C39.32 39 40.64 39 42 39 C42 44.28 42 49.56 42 55 C40.68 55.33 39.36 55.66 38 56 C39.1490712 57.2981424 39.1490712 57.2981424 42 58 C43.6875 59.4375 43.6875 59.4375 45 61 C45 61.66 45 62.32 45 63 C46.9490625 63.185625 46.9490625 63.185625 48.9375 63.375 C51.15234375 63.5859375 51.15234375 63.5859375 53 64 C53.33 64.66 53.66 65.32 54 66 C53.07316406 66.06058594 52.14632812 66.12117188 51.19140625 66.18359375 C49.99386719 66.26738281 48.79632813 66.35117188 47.5625 66.4375 C46.36753906 66.51871094 45.17257813 66.59992188 43.94140625 66.68359375 C41.11429756 66.67656114 41.11429756 66.67656114 40 68 C38.33382885 68.04063832 36.66611905 68.042721 35 68 C35 67.01 35 66.02 35 65 C33.05990478 63.29467677 33.05990478 63.29467677 31 62 C32.65 61.67 34.3 61.34 36 61 C33.69 60.67 31.38 60.34 29 60 C29 60.66 29 61.32 29 62 C28.34 62 27.68 62 27 62 C26.67 61.67 26.34 61.34 26 61 C24.02 61.66 22.04 62.32 20 63 C19.34 62.34 18.68 61.68 18 61 C17.01 61 16.02 61 15 61 C14.505 61.99 14.505 61.99 14 63 C15.65 63 17.3 63 19 63 C19 63.66 19 64.32 19 65 C15.535 65.495 15.535 65.495 12 66 C12 65.34 12 64.68 12 64 C11.34 63.67 10.68 63.34 10 63 C9.67 63.66 9.34 64.32 9 65 C9 64.01 9 63.02 9 62 C8.34 62 7.68 62 7 62 C7.33 62.99 7.66 63.98 8 65 C6.04235617 65.19456705 4.08384679 65.38044247 2.125 65.5625 C0.48917969 65.71912109 0.48917969 65.71912109 -1.1796875 65.87890625 C-4 66 -4 66 -6 65 C-7.32 65 -8.64 65 -10 65 C-8.02 65.495 -8.02 65.495 -6 66 C-6 66.66 -6 67.32 -6 68 C-1.38 68 3.24 68 8 68 C7.505 69.485 7.505 69.485 7 71 C8.98 71.495 8.98 71.495 11 72 C9.68 72.33 8.36 72.66 7 73 C7 73.99 7 74.98 7 76 C5.02 76 3.04 76 1 76 C0.67 75.01 0.34 74.02 0 73 C-0.495 74.98 -0.495 74.98 -1 77 C-3.64 76.34 -6.28 75.68 -9 75 C-8.67 74.34 -8.34 73.68 -8 73 C-7.34 73 -6.68 73 -6 73 C-7.67488528 71.26352052 -7.67488528 71.26352052 -10 70 C-12.73398135 70.70957237 -12.73398135 70.70957237 -15 72 C-14.67 72.99 -14.34 73.98 -14 75 C-16 77 -16 77 -18.8203125 77.1953125 C-19.91085938 77.17210937 -21.00140625 77.14890625 -22.125 77.125 C-23.22070312 77.10695313 -24.31640625 77.08890625 -25.4453125 77.0703125 C-26.28835937 77.04710937 -27.13140625 77.02390625 -28 77 C-28 76.67 -28 76.34 -28 76 C-25.36 76 -22.72 76 -20 76 C-20.33 74.02 -20.66 72.04 -21 70 C-21.99 70 -22.98 70 -24 70 C-24.5534764 67.92446352 -25 66.15634036 -25 64 C-26.65 64 -28.3 64 -30 64 C-29.67 63.01 -29.34 62.02 -29 61 C-28.071875 61.165 -27.14375 61.33 -26.1875 61.5 C-23.04378647 62.07748388 -23.04378647 62.07748388 -20 62 C-18 62 -16 62 -14 62 C-14 60.35 -14 58.7 -14 57 C-15.65 56.67 -17.3 56.34 -19 56 C-19 55.34 -19 54.68 -19 54 C-19.886875 54.474375 -20.77375 54.94875 -21.6875 55.4375 C-28.34438503 58.57754011 -28.34438503 58.57754011 -32.6875 57.0625 C-33.450625 56.711875 -34.21375 56.36125 -35 56 C-35.66 56 -36.32 56 -37 56 C-36.67 56.66 -36.34 57.32 -36 58 C-35.01 58.33 -34.02 58.66 -33 59 C-31.8125 61.5625 -31.8125 61.5625 -31 64 C-31.99 64.495 -31.99 64.495 -33 65 C-33 65.99 -33 66.98 -33 68 C-34.875 67.75 -34.875 67.75 -37 67 C-38.25 64.9375 -38.25 64.9375 -39 63 C-39.99 63.495 -39.99 63.495 -41 64 C-41.65213292 66.02463255 -41.65213292 66.02463255 -42 68 C-42.99 67.67 -43.98 67.34 -45 67 C-45.33 67.66 -45.66 68.32 -46 69 C-43.36 69 -40.72 69 -38 69 C-38 69.66 -38 70.32 -38 71 C-35.69 70.67 -33.38 70.34 -31 70 C-30.34 71.32 -29.68 72.64 -29 74 C-30.32 73.67 -31.64 73.34 -33 73 C-33.33 74.98 -33.66 76.96 -34 79 C-36.97 78.01 -36.97 78.01 -40 77 C-39.34 76.34 -38.68 75.68 -38 75 C-37.01 75 -36.02 75 -35 75 C-36.65 74.67 -38.3 74.34 -40 74 C-40.495 75.485 -40.495 75.485 -41 77 C-44.00313748 78.50156874 -46.79067522 78.09281204 -50.125 78.0625 C-51.40632813 78.05347656 -52.68765625 78.04445313 -54.0078125 78.03515625 C-54.99523437 78.02355469 -55.98265625 78.01195312 -57 78 C-57 76.68 -57 75.36 -57 74 C-57.66 74 -58.32 74 -59 74 C-58.67 74.99 -58.34 75.98 -58 77 C-59.485 77.99 -59.485 77.99 -61 79 C-61.59732819 76.23735711 -62 73.83967231 -62 71 C-60.02 70.505 -60.02 70.505 -58 70 C-58 69.34 -58 68.68 -58 68 C-57.505 66.515 -57.505 66.515 -57 65 C-58.65 64.67 -60.3 64.34 -62 64 C-62 63.34 -62 62.68 -62 62 C-62.66 62 -63.32 62 -64 62 C-64 62.66 -64 63.32 -64 64 C-66.875 64.1875 -66.875 64.1875 -70 64 C-70.66 63.01 -71.32 62.02 -72 61 C-73.32594105 60.63837971 -74.65938457 60.30271961 -76 60 C-76.33 59.34 -76.66 58.68 -77 58 C-74.36 57.67 -71.72 57.34 -69 57 C-72.47823115 55.84058962 -74.45895578 56.29179116 -78 57 C-78.33 56.34 -78.66 55.68 -79 55 C-78.01 55 -77.02 55 -76 55 C-75.95875 53.72125 -75.9175 52.4425 -75.875 51.125 C-75.85179687 50.40570313 -75.82859375 49.68640625 -75.8046875 48.9453125 C-75.81668311 46.76136355 -75.81668311 46.76136355 -78 45 C-78.18772998 42.08235543 -78.25553095 39.26129187 -78.23046875 36.34375 C-78.23001053 35.48567749 -78.22955231 34.62760498 -78.2290802 33.74353027 C-78.22605674 31.9278017 -78.21816763 30.11207576 -78.20581055 28.29638672 C-78.18757399 25.51130013 -78.18530071 22.72654626 -78.18554688 19.94140625 C-78.18063095 18.17968461 -78.17480231 16.41796524 -78.16796875 14.65625 C-78.16685593 13.81976929 -78.1657431 12.98328857 -78.16459656 12.12145996 C-78.11606528 6.23213057 -78.11606528 6.23213057 -77 4 C-58.2256192 3.45317337 -58.2256192 3.45317337 -50 7 C-48.34160126 7.37229359 -46.67798725 7.7293569 -45 8 C-44.33333333 10 -43.66666667 12 -43 14 C-42.6390625 14.9075 -42.278125 15.815 -41.90625 16.75 C-40.84779168 20.54585054 -41.00593379 23.46289818 -41.375 27.375 C-41.48585937 28.62023437 -41.59671875 29.86546875 -41.7109375 31.1484375 C-41.85402344 32.55996094 -41.85402344 32.55996094 -42 34 C-40.02 33.505 -40.02 33.505 -38 33 C-38 35.97 -38 38.94 -38 42 C-37.34 42 -36.68 42 -36 42 C-36.33 29.46 -36.66 16.92 -37 4 C-32.66666667 4 -28.33333333 4 -24 4 C-24 3.01 -24 2.02 -24 1 C-20.75008318 0.83168475 -17.50005436 0.66563638 -14.25 0.5 C-13.32960938 0.45230469 -12.40921875 0.40460937 -11.4609375 0.35546875 C-10.12675781 0.28779297 -10.12675781 0.28779297 -8.765625 0.21875 C-7.94868164 0.17685547 -7.13173828 0.13496094 -6.29003906 0.09179688 C-4.19481876 0.00780937 -2.09690296 0 0 0 Z M-11 3 C-11 3.33 -11 3.66 -11 4 C-8.36 4 -5.72 4 -3 4 C-3 3.67 -3 3.34 -3 3 C-5.64 3 -8.28 3 -11 3 Z M-13 4 C-13 5.26457031 -13 6.52914062 -13 7.83203125 C-13 13.5546875 -13 19.27734375 -13 25 C-12.34 24.67 -11.68 24.34 -11 24 C-10.94592433 21.41638482 -10.906293 18.83390745 -10.875 16.25 C-10.85824219 15.52039063 -10.84148437 14.79078125 -10.82421875 14.0390625 C-10.78927761 10.1955376 -10.82500316 7.25393228 -13 4 Z M-77 6 C-77 17.88 -77 29.76 -77 42 C-76.67 42 -76.34 42 -76 42 C-76 30.12 -76 18.24 -76 6 C-76.33 6 -76.66 6 -77 6 Z M-26 7 C-25 9 -25 9 -25 9 Z M-25 9 C-24.01 9.99 -23.02 10.98 -22 12 C-22.33 11.01 -22.66 10.02 -23 9 C-23.66 9 -24.32 9 -25 9 Z M-67 12 C-67 19.26 -67 26.52 -67 34 C-57.77238768 34.81589126 -57.77238768 34.81589126 -53.4375 32 C-50.43155114 28.30037063 -49.61118486 25.72132667 -50 21 C-51.25735534 17.08000983 -52.31153703 15.480323 -55.6875 13.125 C-59.67945454 11.57122343 -59.67945454 11.57122343 -67 12 Z M13.9375 13.9375 C11.47306778 17.83289286 10.66339489 21.3910992 11 26 C12.63473516 29.12474627 12.63473516 29.12474627 15.125 29.6875 C15.74375 29.790625 16.3625 29.89375 17 30 C17 30.66 17 31.32 17 32 C16.34 32.33 15.68 32.66 15 33 C18.08960109 34.82695589 20.06770369 35.22295727 23.625 34.8125 C24.40101563 34.73644531 25.17703125 34.66039063 25.9765625 34.58203125 C28.38285657 34.12586066 28.38285657 34.12586066 30 31 C30.39387788 28.67612053 30.73486085 26.34206251 31 24 C30.34 24 29.68 24 29 24 C29.165 23.38125 29.33 22.7625 29.5 22.125 C30.07634644 20.03936614 30.07634644 20.03936614 30 18 C31.32 18.33 32.64 18.66 34 19 C33.88693303 17.04105639 33.88693303 17.04105639 33 15 C30.54295238 13.76709799 30.54295238 13.76709799 28 13 C27.67 12.67 27.34 12.34 27 12 C22.04968147 11.35829204 18.21800917 11.22942277 13.9375 13.9375 Z M2 16 C0.76491845 18.4701631 0.93043798 20.00569988 1.0078125 22.76171875 C1.02457031 23.71626953 1.04132813 24.67082031 1.05859375 25.65429688 C1.1024413 27.65709829 1.15436513 29.65974116 1.21484375 31.66210938 C1.30262229 37.61110069 0.8162817 41.72868739 -2 47 C3.02125926 47.77916092 6.97703996 48.13016601 12 47 C12 47.66 12 48.32 12 49 C12.66 49 13.32 49 14 49 C14 48.34 14 47.68 14 47 C15.98 47 17.96 47 20 47 C20 47.66 20 48.32 20 49 C18.02 49.495 18.02 49.495 16 50 C16.99 50 17.98 50 19 50 C19.66 51.32 20.32 52.64 21 54 C21 51.69 21 49.38 21 47 C22.98 47.33 24.96 47.66 27 48 C27 48.99 27 49.98 27 51 C25.68 51.66 24.36 52.32 23 53 C24.98 53.33 26.96 53.66 29 54 C29 51.69 29 49.38 29 47 C30.98 47 32.96 47 35 47 C35.33 44.69 35.66 42.38 36 40 C32.5417375 38.84724583 32.08578992 39.16504792 28.875 40.5 C23.27960554 42.47110487 18.50190334 42.43876649 12.984375 40.171875 C8.00756467 37.53709306 5.77693919 35.04457682 3.8125 29.875 C2.82738713 25.17676938 2.82694204 20.77832269 3 16 C2.67 16 2.34 16 2 16 Z M-17 18 C-16 20 -16 20 -16 20 Z M-28 19 C-28 26.59 -28 34.18 -28 42 C-27.67 42 -27.34 42 -27 42 C-26.77472704 38.54254978 -26.57266456 35.08412975 -26.375 31.625 C-26.31054688 30.64015625 -26.24609375 29.6553125 -26.1796875 28.640625 C-26.128125 27.69960937 -26.0765625 26.75859375 -26.0234375 25.7890625 C-25.97106934 24.91975098 -25.91870117 24.05043945 -25.86474609 23.15478516 C-25.77508788 20.78396504 -25.77508788 20.78396504 -28 19 Z M36 19 C37 22 37 22 37 22 Z M-15 21 C-14 23 -14 23 -14 23 Z M35 23 C34.67 24.65 34.34 26.3 34 28 C34.66 28 35.32 28 36 28 C36 26.35 36 24.7 36 23 C35.67 23 35.34 23 35 23 Z M-12 25 C-11 27 -11 27 -11 27 Z M-26 27 C-26 30.96 -26 34.92 -26 39 C-25.34 39 -24.68 39 -24 39 C-24 39.66 -24 40.32 -24 41 C-22.906875 40.979375 -21.81375 40.95875 -20.6875 40.9375 C-17 41 -17 41 -14 42 C-13.1937361 39.7148758 -13.1937361 39.7148758 -13 37 C-14.31093308 34.67486201 -14.31093308 34.67486201 -16.3125 32.6875 C-16.94800781 31.99011719 -17.58351563 31.29273438 -18.23828125 30.57421875 C-19.85479335 28.77789619 -19.85479335 28.77789619 -22 29 C-22 28.01 -22 27.02 -22 26 C-23.36893239 25.94729537 -23.36893239 25.94729537 -26 27 Z M-46 35 C-46.721875 35.61875 -47.44375 36.2375 -48.1875 36.875 C-50.78381938 38.83666353 -52.94671666 39.95316 -56 41 C-52.95086772 42.01111093 -52.95086772 42.01111093 -50 41 C-50.33 42.32 -50.66 43.64 -51 45 C-50.34 45 -49.68 45 -49 45 C-49.33 45.99 -49.66 46.98 -50 48 C-48.62507196 51.1668838 -48.62507196 51.1668838 -47 54 C-46.67 54 -46.34 54 -46 54 C-46.061875 52.0509375 -46.061875 52.0509375 -46.125 50.0625 C-46.14055052 45.16408698 -45.2492718 40.71823189 -44 36 C-44.66 35.67 -45.32 35.34 -46 35 Z M-76 42 C-76 42.33 -76 42.66 -76 43 C-69.4 43 -62.8 43 -56 43 C-56 42.67 -56 42.34 -56 42 C-62.6 42 -69.2 42 -76 42 Z M-45 42 C-45 43.65 -45 45.3 -45 47 C-44.34 47 -43.68 47 -43 47 C-43 45.35 -43 43.7 -43 42 C-43.66 42 -44.32 42 -45 42 Z M-36 42 C-36 42.33 -36 42.66 -36 43 C-33.36 43 -30.72 43 -28 43 C-28 42.67 -28 42.34 -28 42 C-30.64 42 -33.28 42 -36 42 Z M-11 42 C-11 42.33 -11 42.66 -11 43 C-8.69 43.33 -6.38 43.66 -4 44 C-4 43.34 -4 42.68 -4 42 C-6.31 42 -8.62 42 -11 42 Z M-73 44 C-73 44.33 -73 44.66 -73 45 C-69.7 45 -66.4 45 -63 45 C-63 44.67 -63 44.34 -63 44 C-66.3 44 -69.6 44 -73 44 Z M-31 46 C-31 46.33 -31 46.66 -31 47 C-29.35 47 -27.7 47 -26 47 C-26 46.67 -26 46.34 -26 46 C-27.65 46 -29.3 46 -31 46 Z M-10 46 C-10 46.33 -10 46.66 -10 47 C-8.35 47 -6.7 47 -5 47 C-5 46.67 -5 46.34 -5 46 C-6.65 46 -8.3 46 -10 46 Z M-70 47 C-69.34 49.31 -68.68 51.62 -68 54 C-67.67 54 -67.34 54 -67 54 C-67 52.02 -67 50.04 -67 48 C-67.99 47.67 -68.98 47.34 -70 47 Z M-65 47 C-65 48.98 -65 50.96 -65 53 C-64.34 53 -63.68 53 -63 53 C-63 51.02 -63 49.04 -63 47 C-63.66 47 -64.32 47 -65 47 Z M-60 47 C-59 49 -59 49 -59 49 Z M-56 47 C-56 49.64 -56 52.28 -56 55 C-57.98 55.33 -59.96 55.66 -62 56 C-58.98968256 56.93423645 -58.13349732 57.04449911 -55 56 C-54.67 53.03 -54.34 50.06 -54 47 C-54.66 47 -55.32 47 -56 47 Z M-43 47 C-42.67 47.99 -42.34 48.98 -42 50 C-42 49.01 -42 48.02 -42 47 C-42.33 47 -42.66 47 -43 47 Z M-38 47 C-38 49.31 -38 51.62 -38 54 C-37.67 54 -37.34 54 -37 54 C-37 51.69 -37 49.38 -37 47 C-37.33 47 -37.66 47 -38 47 Z M-25 47 C-25 47.66 -25 48.32 -25 49 C-24.01 48.67 -23.02 48.34 -22 48 C-22.99 47.67 -23.98 47.34 -25 47 Z M-19 47 C-18 49 -18 49 -18 49 Z M-5 47 C-4.01 48.485 -4.01 48.485 -3 50 C-2.67 49.01 -2.34 48.02 -2 47 C-2.99 47 -3.98 47 -5 47 Z M-34 48 C-34 49.98 -34 51.96 -34 54 C-33.34 53.67 -32.68 53.34 -32 53 C-32.33 51.35 -32.66 49.7 -33 48 C-33.33 48 -33.66 48 -34 48 Z M-73 49 C-72.67 49.99 -72.34 50.98 -72 52 C-72 51.01 -72 50.02 -72 49 C-72.33 49 -72.66 49 -73 49 Z M-29 49 C-29 50.32 -29 51.64 -29 53 C-27.68 52.67 -26.36 52.34 -25 52 C-25 51.34 -25 50.68 -25 50 C-26.32 49.67 -27.64 49.34 -29 49 Z M-18 49 C-17 51 -17 51 -17 51 Z M-8 49 C-8 49.99 -8 50.98 -8 52 C-7.01 52 -6.02 52 -5 52 C-5 51.34 -5 50.68 -5 50 C-5.99 49.67 -6.98 49.34 -8 49 Z M0 49 C0 50.32 0 51.64 0 53 C0.66 53 1.32 53 2 53 C1.67 51.68 1.34 50.36 1 49 C0.67 49 0.34 49 0 49 Z M34 49 C34 49.99 34 50.98 34 52 C33.01 52.33 32.02 52.66 31 53 C32.32 53 33.64 53 35 53 C35.33 52.01 35.66 51.02 36 50 C35.34 49.67 34.68 49.34 34 49 Z M-13 50 C-12 52 -12 52 -12 52 Z M5 50 C6 52 6 52 6 52 Z M-17 51 C-17 51.66 -17 52.32 -17 53 C-16.34 52.67 -15.68 52.34 -15 52 C-15.66 51.67 -16.32 51.34 -17 51 Z M12 51 C12 51.66 12 52.32 12 53 C12.66 53 13.32 53 14 53 C14 52.34 14 51.68 14 51 C13.34 51 12.68 51 12 51 Z M-25 52 C-24 54 -24 54 -24 54 Z M4 52 C5 54 5 54 5 54 Z M-46 55 C-44.515 55.99 -44.515 55.99 -43 57 C-43 56.34 -43 55.68 -43 55 C-43.99 55 -44.98 55 -46 55 Z M-40 55 C-39.67 55.66 -39.34 56.32 -39 57 C-38.67 56.34 -38.34 55.68 -38 55 C-38.66 55 -39.32 55 -40 55 Z M14 55 C14 55.99 14 56.98 14 58 C15.65 58 17.3 58 19 58 C18.360625 57.87625 17.72125 57.7525 17.0625 57.625 C16.381875 57.41875 15.70125 57.2125 15 57 C14.67 56.34 14.34 55.68 14 55 Z M-54 56 C-54.33 56.66 -54.66 57.32 -55 58 C-54.01 57.67 -53.02 57.34 -52 57 C-52.66 56.67 -53.32 56.34 -54 56 Z M-47 56 C-46 58 -46 58 -46 58 Z M-8 56 C-8 56.66 -8 57.32 -8 58 C-7.34 58 -6.68 58 -6 58 C-6 57.34 -6 56.68 -6 56 C-6.66 56 -7.32 56 -8 56 Z M11 54 C11 54.66 11 55.32 11 56 C8.36 56 5.72 56 3 56 C3.99 56.495 3.99 56.495 5 57 C5.33 57.99 5.66 58.98 6 60 C8.44480079 59.81171228 8.44480079 59.81171228 11 59 C12.36020151 57.03241727 12.36020151 57.03241727 13 55 C12.34 54.67 11.68 54.34 11 54 Z M23 56 C23.66 56.66 24.32 57.32 25 58 C25.33 57.34 25.66 56.68 26 56 C25.01 56 24.02 56 23 56 Z M30 56 C30 56.66 30 57.32 30 58 C31.32 57.34 32.64 56.68 34 56 C32.68 56 31.36 56 30 56 Z M-60.6875 59.5 C-61.120625 59.995 -61.55375 60.49 -62 61 C-55.97533322 63.06405029 -55.97533322 63.06405029 -50 61.625 C-48.515 60.820625 -48.515 60.820625 -47 60 C-47 59.34 -47 58.68 -47 58 C-49.97 58.66 -52.94 59.32 -56 60 C-56 59.34 -56 58.68 -56 58 C-59.00259517 57.66781808 -59.00259517 57.66781808 -60.6875 59.5 Z M-46 58 C-45.67 58.99 -45.34 59.98 -45 61 C-44.67 60.01 -44.34 59.02 -44 58 C-44.66 58 -45.32 58 -46 58 Z M-42 58 C-41.67 59.32 -41.34 60.64 -41 62 C-39.68 61.34 -38.36 60.68 -37 60 C-39.67642489 57.81509993 -39.67642489 57.81509993 -42 58 Z M19 58 C19 58.66 19 59.32 19 60 C20.65 60 22.3 60 24 60 C24 59.34 24 58.68 24 58 C22.35 58 20.7 58 19 58 Z M-11 60 C-11 60.66 -11 61.32 -11 62 C-11.99 62.33 -12.98 62.66 -14 63 C-12.02 63 -10.04 63 -8 63 C-8.33 62.01 -8.66 61.02 -9 60 C-9.66 60 -10.32 60 -11 60 Z M-51 62 C-51.33 62.66 -51.66 63.32 -52 64 C-51.01 64.33 -50.02 64.66 -49 65 C-49.33 64.01 -49.66 63.02 -50 62 C-50.33 62 -50.66 62 -51 62 Z M-3 62 C-2.01 62.495 -2.01 62.495 -1 63 C-0.67 63.66 -0.34 64.32 0 65 C0.33 64.01 0.66 63.02 1 62 C-0.32 62 -1.64 62 -3 62 Z M-54 63 C-54.99 63.66 -55.98 64.32 -57 65 C-56.01 65.495 -56.01 65.495 -55 66 C-54.34 65.67 -53.68 65.34 -53 65 C-53.33 64.34 -53.66 63.68 -54 63 Z M-21 65 C-21 65.99 -21 66.98 -21 68 C-20.34 68 -19.68 68 -19 68 C-19.33 67.01 -19.66 66.02 -20 65 C-20.33 65 -20.66 65 -21 65 Z M-18 65 C-14 66 -14 66 -14 66 Z M-51 66 C-51.33 67.32 -51.66 68.64 -52 70 C-50.35 69.67 -48.7 69.34 -47 69 C-47.33 68.01 -47.66 67.02 -48 66 C-48.99 66 -49.98 66 -51 66 Z M-8 68 C-8 68.66 -8 69.32 -8 70 C-7.34 69.67 -6.68 69.34 -6 69 C-6.66 68.67 -7.32 68.34 -8 68 Z M-47 69 C-47.66 69.66 -48.32 70.32 -49 71 C-46.525 71.495 -46.525 71.495 -44 72 C-43.67 71.34 -43.34 70.68 -43 70 C-44.89179203 69.3185177 -44.89179203 69.3185177 -47 69 Z M-54 73 C-54.99 74.485 -54.99 74.485 -56 76 C-53.69 76 -51.38 76 -49 76 C-48.67 75.01 -48.34 74.02 -48 73 C-50.91634129 72.7497843 -50.91634129 72.7497843 -54 73 Z M-45 73 C-45.33 73.66 -45.66 74.32 -46 75 C-45.34 75 -44.68 75 -44 75 C-44.33 74.34 -44.66 73.68 -45 73 Z " fill="#F6F6F6" transform="translate(210,52)"/>
<path d="M0 0 C0.969375 0.185625 1.93875 0.37125 2.9375 0.5625 C4.4534375 0.7790625 4.4534375 0.7790625 6 1 C6.33 0.67 6.66 0.34 7 0 C9.33297433 -0.04092937 11.66705225 -0.04241723 14 0 C14.495 2.475 14.495 2.475 15 5 C17.97 5.495 17.97 5.495 21 6 C21.495 8.97 21.495 8.97 22 12 C23.65 12 25.3 12 27 12 C27.91182473 14.46192678 28.06837337 15.75906528 27.34375 18.3125 C25.67633924 21.64732152 23.55763742 23.73304094 20.875 26.3125 C19.96492188 27.19550781 19.05484375 28.07851563 18.1171875 28.98828125 C17.06917969 29.98408203 17.06917969 29.98408203 16 31 C17.98 31.33 19.96 31.66 22 32 C22.04125 31.0925 22.0825 30.185 22.125 29.25 C23 26 23 26 25.875 23.5625 C26.90625 23.046875 27.9375 22.53125 29 22 C32 23 32 23 33 25 C35.11846285 25.68729254 35.11846285 25.68729254 37.5625 26.125 C38.80193359 26.37636719 38.80193359 26.37636719 40.06640625 26.6328125 C40.70449219 26.75398438 41.34257813 26.87515625 42 27 C41.51171875 33.0546875 41.51171875 33.0546875 41 35 C40.01 35.66 39.02 36.32 38 37 C38.66 37 39.32 37 40 37 C40.09706112 43.11485027 39.77040851 48.93303301 39 55 C37 53 37 53 36.875 49.375 C36.91625 48.26125 36.9575 47.1475 37 46 C36.34 46 35.68 46 35 46 C34.67 45.34 34.34 44.68 34 44 C34.495 48.95 34.495 48.95 35 54 C34.236875 53.835 33.47375 53.67 32.6875 53.5 C29.69537297 52.9433252 26.93810642 53.00070156 23.8984375 53.03515625 C22.73570313 53.04417969 21.57296875 53.05320313 20.375 53.0625 C19.20710938 53.07410156 18.03921875 53.08570313 16.8359375 53.09765625 C14 53 14 53 13 52 C12.505 52.99 12.505 52.99 12 54 C10.68 54 9.36 54 8 54 C8 56.31 8 58.62 8 61 C7.01 61 6.02 61 5 61 C3.93093663 54.75898141 3.86092508 50.00978193 6 44 C8.35412419 40.93963855 10.15953414 39.54863798 14 39 C14.495 41.475 14.495 41.475 15 44 C15 43.01 15 42.02 15 41 C15 40.01 15 39.02 15 38 C11.11414872 38.22857949 8.56053308 38.6284651 5.2890625 40.796875 C1.803933 45.67367737 2.38558704 50.22437243 2.5625 56.0625 C2.56830078 57.15111328 2.57410156 58.23972656 2.58007812 59.36132812 C2.61429651 65.96567819 2.61429651 65.96567819 5 72 C5.268125 72.66 5.53625 73.32 5.8125 74 C7.82170511 77.3839244 10.34779066 79.45437242 14.10546875 80.6953125 C16.05717038 81.18582866 18.02797751 81.59891068 20 82 C20 83.98 20 85.96 20 88 C9.44191344 86.07289294 9.44191344 86.07289294 5 84 C5 84.66 5 85.32 5 86 C3.35 85.67 1.7 85.34 0 85 C0 85.66 0 86.32 0 87 C-0.99 87 -1.98 87 -3 87 C-3.495 83.04 -3.495 83.04 -4 79 C-4.33 81.97 -4.66 84.94 -5 88 C-5.99 88.33 -6.98 88.66 -8 89 C-6.68 89.33 -5.36 89.66 -4 90 C-4 90.99 -4 91.98 -4 93 C-6.31 92.67 -8.62 92.34 -11 92 C-11 91.01 -11 90.02 -11 89 C-11.99 88.505 -11.99 88.505 -13 88 C-13 87.34 -13 86.68 -13 86 C-13.928125 86 -14.85625 86 -15.8125 86 C-17.875 86 -19.9375 86 -22 86 C-22 85.34 -22 84.68 -22 84 C-22.886875 84.495 -23.77375 84.99 -24.6875 85.5 C-27.87586238 86.94378674 -29.58187546 87.30159922 -33 87 C-33 87.66 -33 88.32 -33 89 C-29.535 88.01 -29.535 88.01 -26 87 C-25.505 87.99 -25.505 87.99 -25 89 C-25.99 89 -26.98 89 -28 89 C-28.33 90.32 -28.66 91.64 -29 93 C-31.6875 93.375 -31.6875 93.375 -35 93 C-37.06398076 91.176017 -38.39041053 89.27236161 -40 87 C-39.01 86.01 -39.01 86.01 -38 85 C-37.34 85.33 -36.68 85.66 -36 86 C-36 84.68 -36 83.36 -36 82 C-35.33613281 81.85304688 -34.67226563 81.70609375 -33.98828125 81.5546875 C-27.66437475 79.94832293 -24.49911052 78.57670739 -21 73 C-19.67649342 69.78734084 -19.67649342 69.78734084 -19 67 C-19.33 67 -19.66 67 -20 67 C-20.33 62.71 -20.66 58.42 -21 54 C-24.70152678 53.07461831 -25.63458162 52.91825838 -29 54 C-31.01136276 51.44008376 -32.62845496 48.95409701 -34 46 C-34.66 46.66 -35.32 47.32 -36 48 C-36.66 48.28875 -37.32 48.5775 -38 48.875 C-40.42021404 50.2363704 -40.98618622 51.46546555 -42 54 C-42.99 53.34 -43.98 52.68 -45 52 C-47.67145537 52.80161791 -47.67145537 52.80161791 -50 54 C-51 53 -51 53 -51.125 49.625 C-51 46 -51 46 -50 43 C-45.66666667 40 -45.66666667 40 -43 40 C-42.67 41.98 -42.34 43.96 -42 46 C-41.01 43.69 -40.02 41.38 -39 39 C-45.93 38.505 -45.93 38.505 -53 38 C-53 38.66 -53 39.32 -53 40 C-53.66 40 -54.32 40 -55 40 C-54.125 33.125 -54.125 33.125 -53 32 C-51.00577205 31.63371323 -49.00546689 31.29868656 -47 31 C-48.98 31 -50.96 31 -53 31 C-53.33 30.01 -53.66 29.02 -54 28 C-53.34 27.34 -52.68 26.68 -52 26 C-51.34 26 -50.68 26 -50 26 C-50 26.66 -50 27.32 -50 28 C-49.34 28 -48.68 28 -48 28 C-47.67 26.02 -47.34 24.04 -47 22 C-43.62496331 23.1858237 -41.35277269 24.27573689 -39 27 C-39 26.01 -39 25.02 -39 24 C-39.680625 23.360625 -40.36125 22.72125 -41.0625 22.0625 C-42.0215625 21.0415625 -42.0215625 21.0415625 -43 20 C-42.6875 17.8125 -42.6875 17.8125 -42 16 C-42.33 15.67 -42.66 15.34 -43 15 C-43 14.01 -43 13.02 -43 12 C-40.69 12 -38.38 12 -36 12 C-36 12.66 -36 13.32 -36 14 C-35.01 13.67 -34.02 13.34 -33 13 C-33 10.37886292 -33.31292445 8.49064888 -34 6 C-28.82064904 6.08594056 -25.97696592 6.55580133 -22.15625 10.16015625 C-20.91906011 11.44341172 -19.70046358 12.74482378 -18.5 14.0625 C-17.86835937 14.72572266 -17.23671875 15.38894531 -16.5859375 16.07226562 C-15.04011755 17.70006088 -13.5130653 19.34181566 -12 21 C-11.67 19.02 -11.34 17.04 -11 15 C-11.763125 14.9175 -12.52625 14.835 -13.3125 14.75 C-16 14 -16 14 -17.8125 12.25 C-19.19608294 9.62847443 -19.24360427 7.92325122 -19 5 C-18.34 4.67 -17.68 4.34 -17 4 C-14.875 4.9375 -14.875 4.9375 -13 6 C-13 5.01 -13 4.02 -13 3 C-10.36 3 -7.72 3 -5 3 C-5 7.62 -5 12.24 -5 17 C-3.02 16.01 -1.04 15.02 1 14 C0.76023438 13.32453125 0.52046875 12.6490625 0.2734375 11.953125 C-0.17128906 10.61507813 -0.17128906 10.61507813 -0.625 9.25 C-0.92664063 8.36828125 -1.22828125 7.4865625 -1.5390625 6.578125 C-2.07333427 3.58982529 -1.62433191 2.50076998 0 0 Z M-12 5 C-12 8 -12 8 -12 8 Z M6 6 C7 8 7 8 7 8 Z M13 8 C13 8.33 13 8.66 13 9 C14.65 9 16.3 9 18 9 C18 8.67 18 8.34 18 8 C16.35 8 14.7 8 13 8 Z M12 10 C12.33 10.99 12.66 11.98 13 13 C13.66 12.34 14.32 11.68 15 11 C14.01 10.67 13.02 10.34 12 10 Z M15 10 C19 11 19 11 19 11 Z M-31 11 C-31 11.66 -31 12.32 -31 13 C-30.34 12.67 -29.68 12.34 -29 12 C-29.66 11.67 -30.32 11.34 -31 11 Z M-29 13 C-28.67 13.99 -28.34 14.98 -28 16 C-28 15.01 -28 14.02 -28 13 C-28.33 13 -28.66 13 -29 13 Z M21 14 C20.071875 14.78375 19.14375 15.5675 18.1875 16.375 C16.16964273 18.07896836 14.21224455 19.5251703 12 21 C13.98 21.99 13.98 21.99 16 23 C18.31 20.69 20.62 18.38 23 16 C22.34 15.34 21.68 14.68 21 14 Z M3 15 C2.61077082 16.28745036 2.23901964 17.58019597 1.875 18.875 C1.66617188 19.59429687 1.45734375 20.31359375 1.2421875 21.0546875 C1.16226563 21.69664063 1.08234375 22.33859375 1 23 C1.66 23.66 2.32 24.32 3 25 C3.66 21.7 4.32 18.4 5 15 C4.34 15 3.68 15 3 15 Z M25 15 C26 17 26 17 26 17 Z M-36 16 C-36 19 -36 19 -36 19 Z M-28 17 C-28.62048584 19.01478779 -28.62048584 19.01478779 -28.875 21.375 C-28.99617188 22.16648437 -29.11734375 22.95796875 -29.2421875 23.7734375 C-29.22947266 26.19423847 -29.22947266 26.19423847 -27.0078125 27.7890625 C-26.34523438 28.18867187 -25.68265625 28.58828125 -25 29 C-25 28.31292969 -25 27.62585937 -25 26.91796875 C-25 23.27864583 -25 19.63932292 -25 16 C-26.2236068 15.9254644 -26.2236068 15.9254644 -28 17 Z M10 20 C9.67 21.98 9.34 23.96 9 26 C9.66 25.01 10.32 24.02 11 23 C10.67 22.01 10.34 21.02 10 20 Z M-19 23 C-18.67 24.32 -18.34 25.64 -18 27 C-17.34 26.34 -16.68 25.68 -16 25 C-16.99 24.34 -17.98 23.68 -19 23 Z M-5 25 C-4.67 25.66 -4.34 26.32 -4 27 C-3.67 26.34 -3.34 25.68 -3 25 C-3.66 25 -4.32 25 -5 25 Z M-16 26 C-16.99 27.485 -16.99 27.485 -18 29 C-16.68 28.34 -15.36 27.68 -14 27 C-14.66 26.67 -15.32 26.34 -16 26 Z M8 26 C8.33 27.32 8.66 28.64 9 30 C9.33 29.34 9.66 28.68 10 28 C9.34 27.34 8.68 26.68 8 26 Z M0 27 C0.66 27.66 1.32 28.32 2 29 C2 28.34 2 27.68 2 27 C1.34 27 0.68 27 0 27 Z M-35 28 C-35 28.66 -35 29.32 -35 30 C-34.34 29.67 -33.68 29.34 -33 29 C-33.66 28.67 -34.32 28.34 -35 28 Z M-22.5625 29.5 C-23.036875 29.995 -23.51125 30.49 -24 31 C-22.68 31.99 -21.36 32.98 -20 34 C-20 32.02 -20 30.04 -20 28 C-21.24076302 27.88457803 -21.24076302 27.88457803 -22.5625 29.5 Z M-14 28 C-15.22487152 30.44974304 -14.98796191 31.6753273 -14.6875 34.375 C-14.60886719 35.14585938 -14.53023437 35.91671875 -14.44921875 36.7109375 C-13.98084469 39.09760878 -13.18250119 40.88597746 -12 43 C-11.67 43 -11.34 43 -11 43 C-10.91921359 40.87561661 -10.86090859 38.7503677 -10.8125 36.625 C-10.77769531 35.44164062 -10.74289063 34.25828125 -10.70703125 33.0390625 C-10.80371094 32.03617188 -10.90039062 31.03328125 -11 30 C-11.99 29.34 -12.98 28.68 -14 28 Z M-38 29 C-38 29.99 -38 30.98 -38 32 C-35.69 32 -33.38 32 -31 32 C-31.66 31.34 -32.32 30.68 -33 30 C-35.10820797 30.3185177 -35.10820797 30.3185177 -37 31 C-37.33 30.34 -37.66 29.68 -38 29 Z M7 30 C8 32 8 32 8 32 Z M30 30 C29.67 30.66 29.34 31.32 29 32 C31.64 32 34.28 32 37 32 C34.35261084 30.5393715 33.10551666 30 30 30 Z M-5 34 C-5 36.97 -5 39.94 -5 43 C-3.68 42.01 -2.36 41.02 -1 40 C-1.27617533 38.05925139 -1.27617533 38.05925139 -2 36 C-2.99 35.34 -3.98 34.68 -5 34 Z M-27 38 C-27.33 38.66 -27.66 39.32 -28 40 C-25.69 41.65 -23.38 43.3 -21 45 C-20.34 44.34 -19.68 43.68 -19 43 C-21.31232422 40.43750025 -21.31232422 40.43750025 -24 38 C-24.99 38 -25.98 38 -27 38 Z M22 38 C22 38.33 22 38.66 22 39 C26.455 39.99 26.455 39.99 31 41 C31 40.34 31 39.68 31 39 C31.99 39.33 32.98 39.66 34 40 C35.32 39.34 36.64 38.68 38 38 C32.72 38 27.44 38 22 38 Z M-31 39 C-31.66 40.98 -32.32 42.96 -33 45 C-31.515 45.99 -31.515 45.99 -30 47 C-29.32198966 44.09926819 -29.32198966 44.09926819 -29 41 C-29.66 40.34 -30.32 39.68 -31 39 Z M23 40 C23.66 41.32 24.32 42.64 25 44 C25 42.68 25 41.36 25 40 C24.34 40 23.68 40 23 40 Z M26 41 C25.06619039 45.53140653 25.06619039 45.53140653 26 50 C22.04 50 18.08 50 14 50 C14 50.33 14 50.66 14 51 C18.29 51 22.58 51 27 51 C28.21065165 48.57869669 27.94602533 47.51706341 27.5625 44.875 C27.376875 43.59625 27.19125 42.3175 27 41 C26.67 41 26.34 41 26 41 Z M17 45 C16.67 45.66 16.34 46.32 16 47 C17.32 46.67 18.64 46.34 20 46 C19.01 45.67 18.02 45.34 17 45 Z M-21 46 C-21 47.98 -21 49.96 -21 52 C-20.67 52 -20.34 52 -20 52 C-20 50.02 -20 48.04 -20 46 C-20.33 46 -20.66 46 -21 46 Z M20 47 C20 47.33 20 47.66 20 48 C21.65 48 23.3 48 25 48 C25 47.67 25 47.34 25 47 C23.35 47 21.7 47 20 47 Z M-12 51 C-12.04898438 51.96679688 -12.09796875 52.93359375 -12.1484375 53.9296875 C-12.54250272 60.79185764 -13.00684055 67.27716568 -14.79296875 73.94921875 C-15.05539808 76.54875455 -14.25105926 77.75178649 -13 80 C-12.875 82.75 -12.875 82.75 -13 85 C-12.34 85.33 -11.68 85.66 -11 86 C-11 74.45 -11 62.9 -11 51 C-11.33 51 -11.66 51 -12 51 Z M-5 51 C-5 57.93 -5 64.86 -5 72 C-4.34 72 -3.68 72 -3 72 C-2.67 73.32 -2.34 74.64 -2 76 C-1.67 75.34 -1.34 74.68 -1 74 C-1.33 73.01 -1.66 72.02 -2 71 C-2.14573058 69.52034074 -2.24663268 68.03596157 -2.31640625 66.55078125 C-2.35830078 65.70322266 -2.40019531 64.85566406 -2.44335938 63.98242188 C-2.48267578 63.10134766 -2.52199219 62.22027344 -2.5625 61.3125 C-2.60568359 60.41982422 -2.64886719 59.52714844 -2.69335938 58.60742188 C-2.79935353 56.40509892 -2.90142051 54.20266527 -3 52 C-3.66 51.67 -4.32 51.34 -5 51 Z M-16 76 C-15 78 -15 78 -15 78 Z M-17 78 C-18.485 79.98 -18.485 79.98 -20 82 C-18.35 81.34 -16.7 80.68 -15 80 C-15.66 79.34 -16.32 78.68 -17 78 Z M3 81 C3 81.66 3 82.32 3 83 C3.66 82.67 4.32 82.34 5 82 C4.34 81.67 3.68 81.34 3 81 Z M-21 82 C-21 82.99 -21 83.98 -21 85 C-20.01 84.34 -19.02 83.68 -18 83 C-18.99 82.67 -19.98 82.34 -21 82 Z M-37 87 C-37 87.66 -37 88.32 -37 89 C-36.34 88.67 -35.68 88.34 -35 88 C-35.66 87.67 -36.32 87.34 -37 87 Z " fill="#F4F4F4" transform="translate(79,20)"/>
<path d="M0 0 C0 0.66 0 1.32 0 2 C-0.66 2 -1.32 2 -2 2 C-2.33 15.53 -2.66 29.06 -3 43 C-12 43 -12 43 -14.0625 41 C-14.371875 40.34 -14.68125 39.68 -15 39 C-14.34 39 -13.68 39 -13 39 C-15.31 36.03 -17.62 33.06 -20 30 C-20.99 30.33 -21.98 30.66 -23 31 C-23 30.01 -23 29.02 -23 28 C-23.99 27.67 -24.98 27.34 -26 27 C-26 32.61 -26 38.22 -26 44 C-29.96 44 -33.92 44 -38 44 C-38 43.34 -38 42.68 -38 42 C-37.34 42 -36.68 42 -36 42 C-36.33 29.46 -36.66 16.92 -37 4 C-32.66666667 4 -28.33333333 4 -24 4 C-24 3.01 -24 2.02 -24 1 C-20.75008318 0.83168475 -17.50005436 0.66563638 -14.25 0.5 C-13.32960937 0.45230469 -12.40921875 0.40460937 -11.4609375 0.35546875 C-10.12675781 0.28779297 -10.12675781 0.28779297 -8.765625 0.21875 C-7.94868164 0.17685547 -7.13173828 0.13496094 -6.29003906 0.09179688 C-4.19481876 0.00780937 -2.09690296 0 0 0 Z M-11 3 C-11 3.33 -11 3.66 -11 4 C-8.36 4 -5.72 4 -3 4 C-3 3.67 -3 3.34 -3 3 C-5.64 3 -8.28 3 -11 3 Z M-13 4 C-13 5.26457031 -13 6.52914062 -13 7.83203125 C-13 13.5546875 -13 19.27734375 -13 25 C-12.34 24.67 -11.68 24.34 -11 24 C-10.94592433 21.41638482 -10.906293 18.83390745 -10.875 16.25 C-10.85824219 15.52039063 -10.84148437 14.79078125 -10.82421875 14.0390625 C-10.78927761 10.1955376 -10.82500316 7.25393228 -13 4 Z M-26 7 C-25 9 -25 9 -25 9 Z M-25 9 C-24.01 9.99 -23.02 10.98 -22 12 C-22.33 11.01 -22.66 10.02 -23 9 C-23.66 9 -24.32 9 -25 9 Z M-17 18 C-16 20 -16 20 -16 20 Z M-28 19 C-28 26.59 -28 34.18 -28 42 C-27.67 42 -27.34 42 -27 42 C-26.77472704 38.54254978 -26.57266456 35.08412975 -26.375 31.625 C-26.31054688 30.64015625 -26.24609375 29.6553125 -26.1796875 28.640625 C-26.128125 27.69960937 -26.0765625 26.75859375 -26.0234375 25.7890625 C-25.97106934 24.91975098 -25.91870117 24.05043945 -25.86474609 23.15478516 C-25.77508788 20.78396504 -25.77508788 20.78396504 -28 19 Z M-15 21 C-14 23 -14 23 -14 23 Z M-12 25 C-11 27 -11 27 -11 27 Z M-36 42 C-36 42.33 -36 42.66 -36 43 C-33.36 43 -30.72 43 -28 43 C-28 42.67 -28 42.34 -28 42 C-30.64 42 -33.28 42 -36 42 Z " fill="#F7F7F7" transform="translate(210,52)"/>
<path d="M0 0 C20.04255319 0 20.04255319 0 27 3 C28.65839874 3.37229359 30.32201275 3.7293569 32 4 C32.66666667 6 33.33333333 8 34 10 C34.35449219 10.91136719 34.70898438 11.82273437 35.07421875 12.76171875 C36.12789193 16.44735194 36.16269128 19.36743708 35.9375 23.1875 C35.88464844 24.39792969 35.83179688 25.60835937 35.77734375 26.85546875 C35 30 35 30 32.63671875 31.79296875 C31.76660156 32.19128906 30.89648438 32.58960938 30 33 C28.96875 33.70125 27.9375 34.4025 26.875 35.125 C23.18080642 37.53425668 20.64400067 38.12512102 16.33203125 38.09765625 C15.52741455 38.09515869 14.72279785 38.09266113 13.89379883 38.09008789 C12.36855591 38.07643188 12.36855591 38.07643188 10.8125 38.0625 C5.9553125 38.0315625 5.9553125 38.0315625 1 38 C0.67 25.46 0.34 12.92 0 0 Z M10 8 C10 15.26 10 22.52 10 30 C19.22761232 30.81589126 19.22761232 30.81589126 23.5625 28 C26.56844886 24.30037063 27.38881514 21.72132667 27 17 C25.74264466 13.08000983 24.68846297 11.480323 21.3125 9.125 C17.32054546 7.57122343 17.32054546 7.57122343 10 8 Z " fill="#F7F7F7" transform="translate(133,56)"/>
<path d="M0 0 C0.33 3.63 0.66 7.26 1 11 C4.63 11 8.26 11 12 11 C12 9.35 12 7.7 12 6 C12.66 6 13.32 6 14 6 C14 6.66 14 7.32 14 8 C15.051875 7.79375 16.10375 7.5875 17.1875 7.375 C21.23754147 6.97663527 22.36518293 7.54607317 26 9 C28.0959986 9.27876518 30.20262611 9.48588744 32.3125 9.625 C33.91544922 9.73714844 33.91544922 9.73714844 35.55078125 9.8515625 C36.35902344 9.90054688 37.16726562 9.94953125 38 10 C37.34 11.32 36.68 12.64 36 14 C33.98177083 13.96744792 31.96354167 13.93489583 29.9453125 13.90234375 C27.91814596 13.87350758 27.91814596 13.87350758 26 15 C26.495 18.465 26.495 18.465 27 22 C27.99 22.33 28.98 22.66 30 23 C30 23.66 30 24.32 30 25 C30.66 25 31.32 25 32 25 C32 24.34 32 23.68 32 23 C36.00931642 21.39627343 39.05823382 22.61308227 43 24 C43.66 24.66 44.32 25.32 45 26 C46.32 26 47.64 26 49 26 C49.495 24.515 49.495 24.515 50 23 C50.66 23 51.32 23 52 23 C52 23.66 52 24.32 52 25 C53.65 25 55.3 25 57 25 C57 25.66 57 26.32 57 27 C56.360625 27.12375 55.72125 27.2475 55.0625 27.375 C54.381875 27.58125 53.70125 27.7875 53 28 C52.67 28.66 52.34 29.32 52 30 C53.65 30 55.3 30 57 30 C57 30.66 57 31.32 57 32 C53.535 32.495 53.535 32.495 50 33 C50 32.34 50 31.68 50 31 C49.34 30.67 48.68 30.34 48 30 C47.67 30.66 47.34 31.32 47 32 C47 31.01 47 30.02 47 29 C46.34 29 45.68 29 45 29 C45.495 30.485 45.495 30.485 46 32 C44.04235617 32.19456705 42.08384679 32.38044247 40.125 32.5625 C38.48917969 32.71912109 38.48917969 32.71912109 36.8203125 32.87890625 C34 33 34 33 32 32 C30.68 32 29.36 32 28 32 C29.32 32.33 30.64 32.66 32 33 C32 33.66 32 34.32 32 35 C36.62 35 41.24 35 46 35 C45.67 35.99 45.34 36.98 45 38 C46.32 38.33 47.64 38.66 49 39 C47.02 39.495 47.02 39.495 45 40 C45 40.99 45 41.98 45 43 C43.02 43 41.04 43 39 43 C38.67 42.01 38.34 41.02 38 40 C37.67 41.32 37.34 42.64 37 44 C34.36 43.34 31.72 42.68 29 42 C29.495 41.01 29.495 41.01 30 40 C30.66 40 31.32 40 32 40 C30.32511472 38.26352052 30.32511472 38.26352052 28 37 C25.26601865 37.70957237 25.26601865 37.70957237 23 39 C23.33 39.99 23.66 40.98 24 42 C22 44 22 44 19.1796875 44.1953125 C17.54386719 44.16050781 17.54386719 44.16050781 15.875 44.125 C14.77929688 44.10695312 13.68359375 44.08890625 12.5546875 44.0703125 C11.71164063 44.04710937 10.86859375 44.02390625 10 44 C10 43.67 10 43.34 10 43 C12.64 43 15.28 43 18 43 C17.67 41.02 17.34 39.04 17 37 C16.01 37 15.02 37 14 37 C13.4465236 34.92446352 13 33.15634036 13 31 C11.35 31 9.7 31 8 31 C8.33 30.01 8.66 29.02 9 28 C9.928125 28.165 10.85625 28.33 11.8125 28.5 C14.95621353 29.07748388 14.95621353 29.07748388 18 29 C20 29 22 29 24 29 C24 27.35 24 25.7 24 24 C23.34 23.67 22.68 23.34 22 23 C22.33 22.34 22.66 21.68 23 21 C22.525625 20.21625 22.05125 19.4325 21.5625 18.625 C20 16 20 16 20 12 C18.35 12 16.7 12 15 12 C15 12.66 15 13.32 15 14 C8.4 14 1.8 14 -5 14 C-5 12.35 -5 10.7 -5 9 C-5.66 9 -6.32 9 -7 9 C-7 10.32 -7 11.64 -7 13 C-7.66 12.67 -8.32 12.34 -9 12 C-8.71758359 10.53984709 -8.42373386 9.08190207 -8.125 7.625 C-7.96257812 6.81289062 -7.80015625 6.00078125 -7.6328125 5.1640625 C-7 3 -7 3 -5 1 C-1.7 0 -1.7 0 0 0 Z M27 27 C27 27.66 27 28.32 27 29 C26.01 29.33 25.02 29.66 24 30 C25.98 30 27.96 30 30 30 C29.67 29.01 29.34 28.02 29 27 C28.34 27 27.68 27 27 27 Z M35 29 C35.99 29.495 35.99 29.495 37 30 C37.33 30.66 37.66 31.32 38 32 C38.33 31.01 38.66 30.02 39 29 C37.68 29 36.36 29 35 29 Z M17 32 C17 32.99 17 33.98 17 35 C17.66 35 18.32 35 19 35 C18.67 34.01 18.34 33.02 18 32 C17.67 32 17.34 32 17 32 Z M20 32 C24 33 24 33 24 33 Z M30 35 C30 35.66 30 36.32 30 37 C30.66 36.67 31.32 36.34 32 36 C31.34 35.67 30.68 35.34 30 35 Z " fill="#020202" transform="translate(172,85)"/>
<path d="M0 0 C1.65 0 3.3 0 5 0 C5 5.28 5 10.56 5 16 C3.68 16.33 2.36 16.66 1 17 C2.1490712 18.2981424 2.1490712 18.2981424 5 19 C6.6875 20.4375 6.6875 20.4375 8 22 C8 22.66 8 23.32 8 24 C9.299375 24.12375 10.59875 24.2475 11.9375 24.375 C14.15234375 24.5859375 14.15234375 24.5859375 16 25 C16.495 25.99 16.495 25.99 17 27 C16.07316406 27.06058594 15.14632812 27.12117188 14.19140625 27.18359375 C12.39509766 27.30927734 12.39509766 27.30927734 10.5625 27.4375 C9.36753906 27.51871094 8.17257813 27.59992188 6.94140625 27.68359375 C4.11429756 27.67656114 4.11429756 27.67656114 3 29 C1.33382885 29.04063832 -0.33388095 29.042721 -2 29 C-2 28.01 -2 27.02 -2 26 C-3.94009522 24.29467677 -3.94009522 24.29467677 -6 23 C-4.35 22.67 -2.7 22.34 -1 22 C-3.31 21.67 -5.62 21.34 -8 21 C-8 21.66 -8 22.32 -8 23 C-8.66 23 -9.32 23 -10 23 C-10.33 22.67 -10.66 22.34 -11 22 C-12.98 22.66 -14.96 23.32 -17 24 C-17.66 23.34 -18.32 22.68 -19 22 C-18 21 -18 21 -15.4375 20.9375 C-14.2309375 20.9684375 -14.2309375 20.9684375 -13 21 C-13 20.34 -13 19.68 -13 19 C-13.61488281 18.95101562 -14.22976562 18.90203125 -14.86328125 18.8515625 C-15.67152344 18.77679688 -16.47976562 18.70203125 -17.3125 18.625 C-18.11300781 18.55539063 -18.91351563 18.48578125 -19.73828125 18.4140625 C-22 18 -22 18 -25 16 C-25.99 16.66 -26.98 17.32 -28 18 C-30.15625 18.01171875 -30.15625 18.01171875 -32.5 17.6875 C-33.2734375 17.58824219 -34.046875 17.48898438 -34.84375 17.38671875 C-37 17 -37 17 -40 16 C-41.2065625 16.2475 -41.2065625 16.2475 -42.4375 16.5 C-45.06834251 17.01333512 -46.49324027 16.83558658 -49 16 C-49.33 13.69 -49.66 11.38 -50 9 C-47.03549787 8.01183262 -45.08189674 7.92295258 -42 8 C-41.01 8 -40.02 8 -39 8 C-34.33333333 8 -29.66666667 8 -25 8 C-25 8.66 -25 9.32 -25 10 C-24.34 10 -23.68 10 -23 10 C-23 9.34 -23 8.68 -23 8 C-21.02 8 -19.04 8 -17 8 C-17.33 8.99 -17.66 9.98 -18 11 C-17.505 11.99 -17.505 11.99 -17 13 C-16.67 11.35 -16.34 9.7 -16 8 C-14.02 8 -12.04 8 -10 8 C-8.875 11.75 -8.875 11.75 -10 14 C-9.34 14.33 -8.68 14.66 -8 15 C-8 12.69 -8 10.38 -8 8 C-6.8553125 7.9690625 -6.8553125 7.9690625 -5.6875 7.9375 C-2.58610882 7.20339051 -2.58610882 7.20339051 -1.1875 3.4375 C-0.795625 2.303125 -0.40375 1.16875 0 0 Z M-45 10 C-45 10.99 -45 11.98 -45 13 C-44.01 13 -43.02 13 -42 13 C-42 12.34 -42 11.68 -42 11 C-42.99 10.67 -43.98 10.34 -45 10 Z M-37 10 C-37 11.32 -37 12.64 -37 14 C-36.34 14 -35.68 14 -35 14 C-35.33 12.68 -35.66 11.36 -36 10 C-36.33 10 -36.66 10 -37 10 Z M-3 10 C-3 10.99 -3 11.98 -3 13 C-3.99 13.33 -4.98 13.66 -6 14 C-4.68 14 -3.36 14 -2 14 C-1.67 13.01 -1.34 12.02 -1 11 C-1.66 10.67 -2.32 10.34 -3 10 Z M-32 11 C-31 13 -31 13 -31 13 Z M-25 12 C-25 12.66 -25 13.32 -25 14 C-24.34 14 -23.68 14 -23 14 C-23 13.34 -23 12.68 -23 12 C-23.66 12 -24.32 12 -25 12 Z M-33 13 C-32 15 -32 15 -32 15 Z M-14 17 C-13.34 17.66 -12.68 18.32 -12 19 C-11.67 18.34 -11.34 17.68 -11 17 C-11.99 17 -12.98 17 -14 17 Z M-7 17 C-7 17.66 -7 18.32 -7 19 C-5.68 18.34 -4.36 17.68 -3 17 C-4.32 17 -5.64 17 -7 17 Z " fill="#DEDEDE" transform="translate(247,91)"/>
<path d="M0 0 C8.94925538 -0.45504688 8.94925538 -0.45504688 13 3 C14.3125 5.6875 14.3125 5.6875 15 8 C14.01 8.495 14.01 8.495 13 9 C13 9.99 13 10.98 13 12 C11.125 11.75 11.125 11.75 9 11 C7.75 8.9375 7.75 8.9375 7 7 C6.01 7.495 6.01 7.495 5 8 C4.34786708 10.02463255 4.34786708 10.02463255 4 12 C3.01 11.67 2.02 11.34 1 11 C0.67 11.66 0.34 12.32 0 13 C2.64 13 5.28 13 8 13 C8 13.66 8 14.32 8 15 C11.465 14.505 11.465 14.505 15 14 C15.66 15.32 16.32 16.64 17 18 C15.68 17.67 14.36 17.34 13 17 C12.67 18.98 12.34 20.96 12 23 C10.02 22.34 8.04 21.68 6 21 C6.66 20.34 7.32 19.68 8 19 C8.99 19 9.98 19 11 19 C9.35 18.67 7.7 18.34 6 18 C5.67 18.99 5.34 19.98 5 21 C1.99686252 22.50156874 -0.79067522 22.09281204 -4.125 22.0625 C-5.40632812 22.05347656 -6.68765625 22.04445312 -8.0078125 22.03515625 C-9.48894531 22.01775391 -9.48894531 22.01775391 -11 22 C-11 20.68 -11 19.36 -11 18 C-11.66 18 -12.32 18 -13 18 C-12.67 18.99 -12.34 19.98 -12 21 C-12.99 21.66 -13.98 22.32 -15 23 C-15.59732819 20.23735711 -16 17.83967231 -16 15 C-14.68 14.67 -13.36 14.34 -12 14 C-12 13.34 -12 12.68 -12 12 C-11.34 11.01 -10.68 10.02 -10 9 C-9.01 9 -8.02 9 -7 9 C-7.33 8.01 -7.66 7.02 -8 6 C-7.05125 5.7525 -6.1025 5.505 -5.125 5.25 C-1.91306809 4.3142923 -1.91306809 4.3142923 -0.625 1.875 C-0.41875 1.25625 -0.2125 0.6375 0 0 Z M0 2 C0.33 2.99 0.66 3.98 1 5 C1.33 4.01 1.66 3.02 2 2 C1.34 2 0.68 2 0 2 Z M4 2 C4.33 3.32 4.66 4.64 5 6 C6.32 5.34 7.64 4.68 9 4 C6.32357511 1.81509993 6.32357511 1.81509993 4 2 Z M-5 6 C-5.33 6.66 -5.66 7.32 -6 8 C-5.01 8.33 -4.02 8.66 -3 9 C-3.33 8.01 -3.66 7.02 -4 6 C-4.33 6 -4.66 6 -5 6 Z M-5 10 C-5.33 11.32 -5.66 12.64 -6 14 C-4.35 13.67 -2.7 13.34 -1 13 C-1.33 12.01 -1.66 11.02 -2 10 C-2.99 10 -3.98 10 -5 10 Z M-1 13 C-1.66 13.66 -2.32 14.32 -3 15 C-0.525 15.495 -0.525 15.495 2 16 C2.33 15.34 2.66 14.68 3 14 C1.10820797 13.3185177 1.10820797 13.3185177 -1 13 Z M-8 17 C-8.99 18.485 -8.99 18.485 -10 20 C-7.69 20 -5.38 20 -3 20 C-2.67 19.01 -2.34 18.02 -2 17 C-4.91634129 16.7497843 -4.91634129 16.7497843 -8 17 Z M1 17 C0.67 17.66 0.34 18.32 0 19 C0.66 19 1.32 19 2 19 C1.67 18.34 1.34 17.68 1 17 Z " fill="#010101" transform="translate(164,108)"/>
<path d="M0 0 C0.33 3.63 0.66 7.26 1 11 C4.63 11 8.26 11 12 11 C12 9.35 12 7.7 12 6 C12.66 6 13.32 6 14 6 C14 6.66 14 7.32 14 8 C15.051875 7.79375 16.10375 7.5875 17.1875 7.375 C21.23754147 6.97663527 22.36518293 7.54607317 26 9 C28.0959986 9.27876518 30.20262611 9.48588744 32.3125 9.625 C33.91544922 9.73714844 33.91544922 9.73714844 35.55078125 9.8515625 C36.35902344 9.90054688 37.16726562 9.94953125 38 10 C37.34 11.32 36.68 12.64 36 14 C33.98177083 13.96744792 31.96354167 13.93489583 29.9453125 13.90234375 C27.91814596 13.87350758 27.91814596 13.87350758 26 15 C26.495 18.465 26.495 18.465 27 22 C27.99 22.33 28.98 22.66 30 23 C29 25 28 27 27 29 C26.01 29 25.02 29 24 29 C24 27.35 24 25.7 24 24 C23.34 23.67 22.68 23.34 22 23 C22.33 22.34 22.66 21.68 23 21 C22.525625 20.21625 22.05125 19.4325 21.5625 18.625 C20 16 20 16 20 12 C18.35 12 16.7 12 15 12 C15 12.66 15 13.32 15 14 C8.4 14 1.8 14 -5 14 C-5 12.35 -5 10.7 -5 9 C-5.66 9 -6.32 9 -7 9 C-7 10.32 -7 11.64 -7 13 C-7.66 12.67 -8.32 12.34 -9 12 C-8.71758359 10.53984709 -8.42373386 9.08190207 -8.125 7.625 C-7.96257812 6.81289062 -7.80015625 6.00078125 -7.6328125 5.1640625 C-7 3 -7 3 -5 1 C-1.7 0 -1.7 0 0 0 Z " fill="#222222" transform="translate(172,85)"/>
<path d="M0 0 C1.65 0 3.3 0 5 0 C5.33 2.64 5.66 5.28 6 8 C7.485 8.495 7.485 8.495 9 9 C8.01 9.99 7.02 10.98 6 12 C5.34 11.67 4.68 11.34 4 11 C4 10.34 4 9.68 4 9 C3.113125 9.474375 2.22625 9.94875 1.3125 10.4375 C-1.64458217 11.83235008 -3.76532024 12.75117848 -7 13 C-8.67745682 12.36096883 -10.34561387 11.69658363 -12 11 C-12.99 11.33 -13.98 11.66 -15 12 C-15 11.34 -15 10.68 -15 10 C-15.66 10 -16.32 10 -17 10 C-17 10.66 -17 11.32 -17 12 C-17.99 12 -18.98 12 -20 12 C-20 11.34 -20 10.68 -20 10 C-21.65 10.33 -23.3 10.66 -25 11 C-24.67 10.34 -24.34 9.68 -24 9 C-23.9310528 7.62657169 -23.91532292 6.24997898 -23.9375 4.875 C-23.958125 3.59625 -23.97875 2.3175 -24 1 C-20.125 1.875 -20.125 1.875 -19 3 C-18.67 2.34 -18.34 1.68 -18 1 C-17.46375 1.185625 -16.9275 1.37125 -16.375 1.5625 C-13.3642808 2.11710617 -11.00503208 1.54090577 -8 1 C-6.00034285 0.96296931 -3.99943335 0.95239444 -2 1 C-2 1.99 -2 2.98 -2 4 C-1.34 3.67 -0.68 3.34 0 3 C0 2.01 0 1.02 0 0 Z M-11 3 C-11 4.98 -11 6.96 -11 9 C-10.34 8.67 -9.68 8.34 -9 8 C-9.33 6.35 -9.66 4.7 -10 3 C-10.33 3 -10.66 3 -11 3 Z M-6 4 C-6 5.32 -6 6.64 -6 8 C-4.68 7.67 -3.36 7.34 -2 7 C-2 6.34 -2 5.68 -2 5 C-3.32 4.67 -4.64 4.34 -6 4 Z M-2 7 C-1 9 -1 9 -1 9 Z " fill="#F9F9F9" transform="translate(187,97)"/>
<path d="M0 0 C0 0.66 0 1.32 0 2 C-0.66 2 -1.32 2 -2 2 C-2.33 2.66 -2.66 3.32 -3 4 C-6.3 3.67 -9.6 3.34 -13 3 C-12.67 9.27 -12.34 15.54 -12 22 C-12.66 22.33 -13.32 22.66 -14 23 C-14.98712878 21.75627811 -15.96439905 20.50472782 -16.9375 19.25 C-17.48277344 18.55390625 -18.02804688 17.8578125 -18.58984375 17.140625 C-19.98376777 15.02464061 -20.41869043 13.4256463 -21 11 C-21.639375 10.690625 -22.27875 10.38125 -22.9375 10.0625 C-25 9 -25 9 -26.25 6.375 C-26.4975 5.59125 -26.745 4.8075 -27 4 C-26.01 4 -25.02 4 -24 4 C-24 3.01 -24 2.02 -24 1 C-20.75008318 0.83168475 -17.50005436 0.66563638 -14.25 0.5 C-13.32960937 0.45230469 -12.40921875 0.40460937 -11.4609375 0.35546875 C-10.12675781 0.28779297 -10.12675781 0.28779297 -8.765625 0.21875 C-7.94868164 0.17685547 -7.13173828 0.13496094 -6.29003906 0.09179688 C-4.19481876 0.00780937 -2.09690296 0 0 0 Z " fill="#1E1E1E" transform="translate(210,52)"/>
<path d="M0 0 C2.375 0.1875 2.375 0.1875 5 1 C7.65801212 5.10783691 6.76146149 8.35508491 6 13 C5.90735412 16.33525181 5.93959481 19.6642911 6 23 C5.01 23 4.02 23 3 23 C2.566875 21.824375 2.566875 21.824375 2.125 20.625 C1.15087746 17.90328368 1.15087746 17.90328368 -1 16 C-4.09926819 16.32198966 -4.09926819 16.32198966 -7 17 C-6.814375 16.071875 -6.62875 15.14375 -6.4375 14.1875 C-5.75876119 10.98656229 -5.75876119 10.98656229 -7 8 C-6.67 7.34 -6.34 6.68 -6 6 C-6.66 5.67 -7.32 5.34 -8 5 C-7.01 4.34 -6.02 3.68 -5 3 C-4.34 3.33 -3.68 3.66 -3 4 C-2.01 2.68 -1.02 1.36 0 0 Z M0 5 C1 8 1 8 1 8 Z M-1 9 C-1.33 10.65 -1.66 12.3 -2 14 C-1.34 14 -0.68 14 0 14 C0 12.35 0 10.7 0 9 C-0.33 9 -0.66 9 -1 9 Z " fill="#090909" transform="translate(246,66)"/>
<path d="M0 0 C1.19625 0.020625 2.3925 0.04125 3.625 0.0625 C4.615 0.0625 5.605 0.0625 6.625 0.0625 C11.29166667 0.0625 15.95833333 0.0625 20.625 0.0625 C20.625 0.7225 20.625 1.3825 20.625 2.0625 C21.285 2.0625 21.945 2.0625 22.625 2.0625 C22.625 2.7225 22.625 3.3825 22.625 4.0625 C21.965 4.0625 21.305 4.0625 20.625 4.0625 C20.625 4.7225 20.625 5.3825 20.625 6.0625 C21.285 6.0625 21.945 6.0625 22.625 6.0625 C22.295 7.0525 21.965 8.0425 21.625 9.0625 C20.965 9.0625 20.305 9.0625 19.625 9.0625 C18.944375 9.26875 18.26375 9.475 17.5625 9.6875 C13.95626662 10.14787022 11.26069559 9.34689475 7.76953125 8.47265625 C5.15121064 7.97188455 3.18552536 8.40407919 0.625 9.0625 C-1.6875 8.625 -1.6875 8.625 -3.375 8.0625 C-3.75563221 5.7364143 -4.08769945 3.40194736 -4.375 1.0625 C-3.375 0.0625 -3.375 0.0625 0 0 Z M0.625 2.0625 C0.625 3.0525 0.625 4.0425 0.625 5.0625 C1.615 5.0625 2.605 5.0625 3.625 5.0625 C3.625 4.4025 3.625 3.7425 3.625 3.0625 C2.635 2.7325 1.645 2.4025 0.625 2.0625 Z M8.625 2.0625 C8.625 3.3825 8.625 4.7025 8.625 6.0625 C9.285 6.0625 9.945 6.0625 10.625 6.0625 C10.295 4.7425 9.965 3.4225 9.625 2.0625 C9.295 2.0625 8.965 2.0625 8.625 2.0625 Z M13.625 3.0625 C14.625 5.0625 14.625 5.0625 14.625 5.0625 Z M12.625 5.0625 C13.625 7.0625 13.625 7.0625 13.625 7.0625 Z " fill="#F5F5F5" transform="translate(201.375,98.9375)"/>
<path d="M0 0 C3.74993479 -0.05811773 7.49975352 -0.09363593 11.25 -0.125 C12.84521484 -0.15013672 12.84521484 -0.15013672 14.47265625 -0.17578125 C15.49746094 -0.18222656 16.52226562 -0.18867187 17.578125 -0.1953125 C18.52075195 -0.20578613 19.46337891 -0.21625977 20.43457031 -0.22705078 C23.09951941 0.00880787 24.71863092 0.64338341 27 2 C25.2675 1.938125 25.2675 1.938125 23.5 1.875 C19.73725221 1.86835204 16.49648243 2.47467529 12.890625 3.50390625 C11 4 11 4 7.625 4.375 C4.88410038 4.71279377 4.88410038 4.71279377 3.75 6.875 C3.5025 7.57625 3.255 8.2775 3 9 C2.01 10.485 2.01 10.485 1 12 C0.08831052 15.45606377 -0.10037423 18.63286605 -0.02734375 22.1953125 C-0.01509766 23.15824219 -0.00285156 24.12117188 0.00976562 25.11328125 C0.04505989 27.12897575 0.08415189 29.14460717 0.12695312 31.16015625 C0.13791016 32.12050781 0.14886719 33.08085938 0.16015625 34.0703125 C0.17699463 34.94445801 0.19383301 35.81860352 0.21118164 36.71923828 C0 39 0 39 -2 42 C-3.1802738 38.4591786 -3.0238386 35.37644627 -2.87890625 31.70703125 C-2.85529526 31.00100266 -2.83168427 30.29497406 -2.80735779 29.56755066 C-2.73087055 27.31565493 -2.64678253 25.06411613 -2.5625 22.8125 C-2.50926432 21.28452259 -2.45652401 19.75652784 -2.40429688 18.22851562 C-2.27527576 14.48545165 -2.13943788 10.74268981 -2 7 C-2.66 7 -3.32 7 -4 7 C-4 6.01 -4 5.02 -4 4 C-3.01 3.67 -2.02 3.34 -1 3 C-0.67 2.01 -0.34 1.02 0 0 Z " fill="#0A0A0A" transform="translate(212,53)"/>
<path d="M0 0 C2.97 0 5.94 0 9 0 C8.67 5.28 8.34 10.56 8 16 C6 14 6 14 5.875 10.375 C5.91625 9.26125 5.9575 8.1475 6 7 C5.34 7 4.68 7 4 7 C3.67 6.34 3.34 5.68 3 5 C3.33 8.3 3.66 11.6 4 15 C3.236875 14.835 2.47375 14.67 1.6875 14.5 C-1.03596236 13.90854604 -1.03596236 13.90854604 -4 14 C-8.33333333 14 -12.66666667 14 -17 14 C-17 13.34 -17 12.68 -17 12 C-10.565 11.505 -10.565 11.505 -4 11 C-4 8.03 -4 5.06 -4 2 C-3.34 1.67 -2.68 1.34 -2 1 C-1.34 1.33 -0.68 1.66 0 2 C0 1.34 0 0.68 0 0 Z " fill="#BCBCBC" transform="translate(110,59)"/>
<path d="M0 0 C2.1875 1.4375 2.1875 1.4375 4 3 C2.75482035 4.13033298 1.50363348 5.25405036 0.25 6.375 C-0.44609375 7.00148438 -1.1421875 7.62796875 -1.859375 8.2734375 C-5.61241669 11.30052587 -8.16950221 12.26836099 -13 12 C-13 12.66 -13 13.32 -13 14 C-10.69 13.34 -8.38 12.68 -6 12 C-5.67 12.66 -5.34 13.32 -5 14 C-5.99 14 -6.98 14 -8 14 C-8.33 15.32 -8.66 16.64 -9 18 C-11.6875 18.375 -11.6875 18.375 -15 18 C-17.06398076 16.176017 -18.39041053 14.27236161 -20 12 C-19.34 11.34 -18.68 10.68 -18 10 C-17.34 10.33 -16.68 10.66 -16 11 C-16 9.68 -16 8.36 -16 7 C-14.96939453 6.72736328 -14.96939453 6.72736328 -13.91796875 6.44921875 C-13.01691406 6.19785156 -12.11585937 5.94648437 -11.1875 5.6875 C-10.29417969 5.44386719 -9.40085937 5.20023437 -8.48046875 4.94921875 C-5.90179511 3.96241923 -4.85022164 2.97745752 -3 1 C-2.01 0.67 -1.02 0.34 0 0 Z M-17 12 C-17 12.66 -17 13.32 -17 14 C-16.34 13.67 -15.68 13.34 -15 13 C-15.66 12.67 -16.32 12.34 -17 12 Z " fill="#EEEEEE" transform="translate(59,95)"/>
<path d="M0 0 C0 1.98 0 3.96 0 6 C0.66 6 1.32 6 2 6 C2 4.02 2 2.04 2 0 C4.31 0 6.62 0 9 0 C9 2.64 9 5.28 9 8 C3.04296875 9.7578125 3.04296875 9.7578125 1 10 C0.01 9.34 -0.98 8.68 -2 8 C-2 8.66 -2 9.32 -2 10 C-2.70125 9.814375 -3.4025 9.62875 -4.125 9.4375 C-7.33888698 8.94843024 -9.83560336 9.33768442 -13 10 C-13.33 9.34 -13.66 8.68 -14 8 C-13.01 8 -12.02 8 -11 8 C-11 5.36 -11 2.72 -11 0 C-6.98195309 -0.84098656 -3.98196457 -1.05404945 0 0 Z M-5 0 C-4.34 2.31 -3.68 4.62 -3 7 C-2.67 7 -2.34 7 -2 7 C-2 5.02 -2 3.04 -2 1 C-2.99 0.67 -3.98 0.34 -5 0 Z M-8 2 C-7.67 2.99 -7.34 3.98 -7 5 C-7 4.01 -7 3.02 -7 2 C-7.33 2 -7.66 2 -8 2 Z " fill="#F7F7F7" transform="translate(145,99)"/>
<path d="M0 0 C1 3 1 3 1 7 C4.96 7.33 8.92 7.66 13 8 C13 8.99 13 9.98 13 11 C12.15695313 11.03738281 11.31390625 11.07476562 10.4453125 11.11328125 C8.80175781 11.21189453 8.80175781 11.21189453 7.125 11.3125 C6.03445312 11.37050781 4.94390625 11.42851563 3.8203125 11.48828125 C2.42425781 11.74158203 2.42425781 11.74158203 1 12 C0.01 13.485 0.01 13.485 -1 15 C-2.32 15 -3.64 15 -5 15 C-5 17.31 -5 19.62 -5 22 C-5.99 22 -6.98 22 -8 22 C-9.06906337 15.75898141 -9.13907492 11.00978193 -7 5 C-4.69966669 2.10603229 -3.51696795 1.17232265 0 0 Z " fill="#F9F9F9" transform="translate(92,59)"/>
<path d="M0 0 C0.65226563 0.0721875 1.30453125 0.144375 1.9765625 0.21875 C6.6737056 0.71756166 11.26852656 1.12451246 16 1 C16.33 1.99 16.66 2.98 17 4 C17.66 4.33 18.32 4.66 19 5 C19 5.66 19 6.32 19 7 C20.299375 7.12375 21.59875 7.2475 22.9375 7.375 C25.15234375 7.5859375 25.15234375 7.5859375 27 8 C27.495 8.99 27.495 8.99 28 10 C27.07316406 10.06058594 26.14632812 10.12117188 25.19140625 10.18359375 C23.99386719 10.26738281 22.79632813 10.35117188 21.5625 10.4375 C20.36753906 10.51871094 19.17257813 10.59992188 17.94140625 10.68359375 C15.11429756 10.67656114 15.11429756 10.67656114 14 12 C12.33382885 12.04063832 10.66611905 12.042721 9 12 C9 11.01 9 10.02 9 9 C7.05990478 7.29467677 7.05990478 7.29467677 5 6 C6.65 5.67 8.3 5.34 10 5 C7.69 4.67 5.38 4.34 3 4 C3 4.66 3 5.32 3 6 C2.34 6 1.68 6 1 6 C0.67 5.67 0.34 5.34 0 5 C-1.98 5.66 -3.96 6.32 -6 7 C-6.66 6.34 -7.32 5.68 -8 5 C-7 4 -7 4 -4.4375 3.9375 C-3.2309375 3.9684375 -3.2309375 3.9684375 -2 4 C-1.34 2.68 -0.68 1.36 0 0 Z " fill="#000000" transform="translate(236,108)"/>
<path d="M0 0 C2.49361571 1.20381448 4.68143083 2.45428722 7 4 C7.66 4 8.32 4 9 4 C9 11.59 9 19.18 9 27 C8.67 27 8.34 27 8 27 C7.67 22.71 7.34 18.42 7 14 C3.29847322 13.07461831 2.36541838 12.91825838 -1 14 C-3.46484668 11.10648433 -5 8.87274628 -5 5 C-2.5625 2.1875 -2.5625 2.1875 0 0 Z M7 6 C7 7.98 7 9.96 7 12 C7.33 12 7.66 12 8 12 C8 10.02 8 8.04 8 6 C7.67 6 7.34 6 7 6 Z " fill="#F2F2F2" transform="translate(51,60)"/>
<path d="M0 0 C3.875 0.875 3.875 0.875 5 2 C5.33 1.34 5.66 0.68 6 0 C6.53625 0.185625 7.0725 0.37125 7.625 0.5625 C10.61990614 1.11419324 13.03745829 0.60597444 16 0 C15.01 1.485 15.01 1.485 14 3 C13.61500109 4.65549531 13.27206865 6.3222433 13 8 C15.475 8.99 15.475 8.99 18 10 C17.67 10.66 17.34 11.32 17 12 C16.236875 11.649375 15.47375 11.29875 14.6875 10.9375 C11.95240621 9.67639116 11.95240621 9.67639116 9 11 C9 10.34 9 9.68 9 9 C8.34 9 7.68 9 7 9 C7 9.66 7 10.32 7 11 C6.01 11 5.02 11 4 11 C4 10.34 4 9.68 4 9 C2.35 9.33 0.7 9.66 -1 10 C-0.67 9.34 -0.34 8.68 0 8 C0.0689472 6.62657169 0.08467708 5.24997898 0.0625 3.875 C0.041875 2.59625 0.02125 1.3175 0 0 Z " fill="#F6F6F6" transform="translate(163,98)"/>
<path d="M0 0 C0.99 0 1.98 0 3 0 C3 0.66 3 1.32 3 2 C5.97 1.34 8.94 0.68 12 0 C12 0.66 12 1.32 12 2 C12.763125 1.67 13.52625 1.34 14.3125 1 C17 0 17 0 20 0 C20 0.66 20 1.32 20 2 C17.03 2.66 14.06 3.32 11 4 C11 3.34 11 2.68 11 2 C9.02 2.99 9.02 2.99 7 4 C8.98 4.99 10.96 5.98 13 7 C10 9 10 9 7.3125 8.625 C6.549375 8.41875 5.78625 8.2125 5 8 C5 7.34 5 6.68 5 6 C4.34 6 3.68 6 3 6 C3 6.66 3 7.32 3 8 C0.125 8.1875 0.125 8.1875 -3 8 C-3.66 7.01 -4.32 6.02 -5 5 C-6.32594105 4.63837971 -7.65938457 4.30271961 -9 4 C-9.33 3.34 -9.66 2.68 -10 2 C-6.7 2 -3.4 2 0 2 C0 1.34 0 0.68 0 0 Z " fill="#020202" transform="translate(143,108)"/>
<path d="M0 0 C2.76647002 0.38423195 4.59745301 0.6807386 6.8125 2.4375 C10.00292423 4.71637445 13.18044052 5.17242878 17 6 C17 7.98 17 9.96 17 12 C9.4781027 11.10600401 4.66866428 9.03529397 -1 4 C-0.67 2.68 -0.34 1.36 0 0 Z " fill="#F8F8F8" transform="translate(82,96)"/>
<path d="M0 0 C1.65 0 3.3 0 5 0 C5 5.28 5 10.56 5 16 C3.68 16.33 2.36 16.66 1 17 C1 16.34 1 15.68 1 15 C0.01 14.67 -0.98 14.34 -2 14 C-2 12.68 -2 11.36 -2 10 C-1.34 10 -0.68 10 0 10 C-0.99 8.68 -1.98 7.36 -3 6 C-2.01 4.02 -1.02 2.04 0 0 Z " fill="#0A0A0A" transform="translate(247,91)"/>
<path d="M0 0 C0.33 3.63 0.66 7.26 1 11 C3.97 11 6.94 11 10 11 C6.59568053 13.26954631 4.83475798 13.36549949 0.8125 13.625 C-0.27417969 13.69976562 -1.36085937 13.77453125 -2.48046875 13.8515625 C-3.72763672 13.92503906 -3.72763672 13.92503906 -5 14 C-5 12.35 -5 10.7 -5 9 C-5.66 9 -6.32 9 -7 9 C-7 10.32 -7 11.64 -7 13 C-7.66 12.67 -8.32 12.34 -9 12 C-8.71758359 10.53984709 -8.42373386 9.08190207 -8.125 7.625 C-7.96257812 6.81289062 -7.80015625 6.00078125 -7.6328125 5.1640625 C-7 3 -7 3 -5 1 C-1.7 0 -1.7 0 0 0 Z " fill="#0E0E0E" transform="translate(172,85)"/>
<path d="M0 0 C1.2684375 0.3403125 1.2684375 0.3403125 2.5625 0.6875 C3.325625 0.873125 4.08875 1.05875 4.875 1.25 C5.7103125 1.4665625 5.7103125 1.4665625 6.5625 1.6875 C6.5625 1.3575 6.5625 1.0275 6.5625 0.6875 C8.2125 0.6875 9.8625 0.6875 11.5625 0.6875 C11.5625 2.0075 11.5625 3.3275 11.5625 4.6875 C12.8825 5.3475 14.2025 6.0075 15.5625 6.6875 C6.55794949 9.06124861 6.55794949 9.06124861 1.5625 7.6875 C-0.03930782 7.48081512 -1.6438692 7.2948552 -3.25 7.125 C-4.04019531 7.04121094 -4.83039063 6.95742187 -5.64453125 6.87109375 C-6.23621094 6.81050781 -6.82789063 6.74992188 -7.4375 6.6875 C-4.93329832 -0.63247414 -4.93329832 -0.63247414 0 0 Z M0.5625 3.6875 C0.2325 4.6775 -0.0975 5.6675 -0.4375 6.6875 C1.8725 6.0275 4.1825 5.3675 6.5625 4.6875 C6.5625 4.3575 6.5625 4.0275 6.5625 3.6875 C4.5825 3.6875 2.6025 3.6875 0.5625 3.6875 Z " fill="#000000" transform="translate(252.4375,122.3125)"/>
<path d="M0 0 C0.33 0 0.66 0 1 0 C1.33 11.88 1.66 23.76 2 36 C2.99 36.33 3.98 36.66 5 37 C5 37.66 5 38.32 5 39 C11.93 38.34 18.86 37.68 26 37 C25.67 38.32 25.34 39.64 25 41 C16.98156277 41.12795379 8.95964651 41.09462032 1 40 C0 39 0 39 -0.11352539 35.30639648 C-0.11336624 33.66128708 -0.10766988 32.01617269 -0.09765625 30.37109375 C-0.0962413 29.50686295 -0.09482635 28.64263214 -0.09336853 27.75221252 C-0.08775239 24.98060708 -0.07519719 22.2090812 -0.0625 19.4375 C-0.05748708 17.5631522 -0.05292381 15.68880315 -0.04882812 13.81445312 C-0.03777772 9.20960456 -0.0205023 4.60481579 0 0 Z " fill="#969696" transform="translate(132,58)"/>
<path d="M0 0 C0 4.29 0 8.58 0 13 C-0.99 13 -1.98 13 -3 13 C-4.051875 13.2784375 -4.051875 13.2784375 -5.125 13.5625 C-5.74375 13.706875 -6.3625 13.85125 -7 14 C-8 13 -8 13 -8.125 9.625 C-8 6 -8 6 -7 3 C-2.66666667 0 -2.66666667 0 0 0 Z " fill="#F7F7F7" transform="translate(36,60)"/>
<path d="M0 0 C2.875 -0.125 2.875 -0.125 6 0 C9.00617269 3.00617269 8.59585316 5.82381598 9 10 C8.29875 9.814375 7.5975 9.62875 6.875 9.4375 C3.66111302 8.94843024 1.16439664 9.33768442 -2 10 C-2.33 9.34 -2.66 8.68 -3 8 C-2.01 8 -1.02 8 0 8 C0 5.36 0 2.72 0 0 Z M3 2 C3.33 2.99 3.66 3.98 4 5 C4 4.01 4 3.02 4 2 C3.67 2 3.34 2 3 2 Z " fill="#EEEEEE" transform="translate(134,99)"/>
<path d="M0 0 C0.969375 0.185625 1.93875 0.37125 2.9375 0.5625 C3.948125 0.706875 4.95875 0.85125 6 1 C6.33 0.67 6.66 0.34 7 0 C9.33297433 -0.04092937 11.66705225 -0.04241723 14 0 C14 1.98 14 3.96 14 6 C8.01006953 6.3152595 4.36439644 5.68219822 -1 3 C-0.67 2.01 -0.34 1.02 0 0 Z " fill="#282828" transform="translate(79,20)"/>
<path d="M0 0 C1.98 0 3.96 0 6 0 C5.67 5.28 5.34 10.56 5 16 C3 14 3 14 2.875 10.375 C2.91625 9.26125 2.9575 8.1475 3 7 C2.34 7 1.68 7 1 7 C0.34 5.02 -0.32 3.04 -1 1 C-0.67 0.67 -0.34 0.34 0 0 Z " fill="#0D0D0D" transform="translate(113,59)"/>
<path d="M0 0 C1.98 0 3.96 0 6 0 C5.67 0.99 5.34 1.98 5 3 C5.08333333 5.58333333 5.08333333 5.58333333 6 8 C7.96758273 9.36020151 7.96758273 9.36020151 10 10 C10 10.33 10 10.66 10 11 C8.5199159 10.88637738 7.04089926 10.75877092 5.5625 10.625 C4.73878906 10.55539063 3.91507813 10.48578125 3.06640625 10.4140625 C2.38449219 10.27742188 1.70257813 10.14078125 1 10 C-0.60725635 6.78548731 -0.05748185 3.56387464 0 0 Z " fill="#B8B8B8" transform="translate(224,99)"/>
<path d="M0 0 C2.86724686 0.57344937 3.8614515 0.8614515 6 3 C5.75 5.0625 5.75 5.0625 5 7 C4.01 7.495 4.01 7.495 3 8 C3 8.66 3 9.32 3 10 C0.61435923 9.42415568 -1.66682784 8.77772405 -4 8 C-3.67 6.35 -3.34 4.7 -3 3 C-2.01 3 -1.02 3 0 3 C0 2.01 0 1.02 0 0 Z " fill="#000000" transform="translate(260,105)"/>
<path d="M0 0 C1.98 0 3.96 0 6 0 C6.98120464 3.05263664 6.98120464 4.94736336 6 8 C3.69 8.33 1.38 8.66 -1 9 C-0.67 6.03 -0.34 3.06 0 0 Z " fill="#F8F8F8" transform="translate(231,99)"/>
<path d="M0 0 C4.455 0.99 4.455 0.99 9 2 C8.4140625 8.15234375 8.4140625 8.15234375 8 10 C7.01 10.495 7.01 10.495 6 11 C5.67 9.68 5.34 8.36 5 7 C3.35 6.67 1.7 6.34 0 6 C0 4.02 0 2.04 0 0 Z " fill="#171717" transform="translate(112,45)"/>
<path d="M0 0 C0.99 0.33 1.98 0.66 3 1 C3 2.98 3 4.96 3 7 C2.01 6.67 1.02 6.34 0 6 C0 11.61 0 17.22 0 23 C-3.96 23 -7.92 23 -12 23 C-12 22.34 -12 21.68 -12 21 C-8.7 21 -5.4 21 -2 21 C-1.93941406 19.56785156 -1.87882813 18.13570312 -1.81640625 16.66015625 C-1.73201896 14.79425959 -1.64737007 12.92837476 -1.5625 11.0625 C-1.52318359 10.11697266 -1.48386719 9.17144531 -1.44335938 8.19726562 C-1.40146484 7.29814453 -1.35957031 6.39902344 -1.31640625 5.47265625 C-1.27974854 4.64000244 -1.24309082 3.80734863 -1.20532227 2.94946289 C-1 1 -1 1 0 0 Z " fill="#E7E7E7" transform="translate(184,73)"/>
<path d="M0 0 C1.5625 1.0625 1.5625 1.0625 3 3 C2.6875 6.6875 2.6875 6.6875 2 10 C-1 10 -4 10 -7 10 C-6 8 -6 8 -3.5 5.5625 C-0.82063363 3.18879763 -0.82063363 3.18879763 0 0 Z " fill="#2F2F2F" transform="translate(64,96)"/>
<path d="M0 0 C-0.66 0.66 -1.32 1.32 -2 2 C-2.64767793 4.57061311 -2.64767793 4.57061311 -3 7 C-0.525 7.99 -0.525 7.99 2 9 C1.67 9.66 1.34 10.32 1 11 C0.236875 10.649375 -0.52625 10.29875 -1.3125 9.9375 C-4.04759379 8.67639116 -4.04759379 8.67639116 -7 10 C-6.67 6.7 -6.34 3.4 -6 0 C-3 -1 -3 -1 0 0 Z " fill="#E2E2E2" transform="translate(179,99)"/>
<path d="M0 0 C2.03833424 1.2739589 4.03852126 2.61061923 6 4 C6 4.66 6 5.32 6 6 C6.66 6.33 7.32 6.66 8 7 C8 7.66 8 8.32 8 9 C6.35 8.67 4.7 8.34 3 8 C3 8.66 3 9.32 3 10 C2.01 10 1.02 10 0 10 C0 6.7 0 3.4 0 0 Z " fill="#272727" transform="translate(76,97)"/>
<path d="M0 0 C0.33 1.98 0.66 3.96 1 6 C-0.98 6.99 -2.96 7.98 -5 9 C-4.34 7.02 -3.68 5.04 -3 3 C-9.6 3 -16.2 3 -23 3 C-23 2.67 -23 2.34 -23 2 C-21.81921875 1.93941406 -20.6384375 1.87882812 -19.421875 1.81640625 C-17.8645723 1.73197418 -16.30728121 1.64732751 -14.75 1.5625 C-13.97269531 1.52318359 -13.19539062 1.48386719 -12.39453125 1.44335938 C-11.64042969 1.40146484 -10.88632813 1.35957031 -10.109375 1.31640625 C-9.41811523 1.27974854 -8.72685547 1.24309082 -8.01464844 1.20532227 C-5.26973404 0.92557517 -2.76062706 0 0 0 Z " fill="#DADADA" transform="translate(160,93)"/>
<path d="M0 0 C1.65 0 3.3 0 5 0 C5 2.64 5 5.28 5 8 C4.01 8.495 4.01 8.495 3 9 C2.67 7.68 2.34 6.36 2 5 C-0.64 5.33 -3.28 5.66 -6 6 C-6 4.68 -6 3.36 -6 2 C-5.21625 2.185625 -4.4325 2.37125 -3.625 2.5625 C-1.02910225 3.25962266 -1.02910225 3.25962266 1 2 C0.67 1.34 0.34 0.68 0 0 Z " fill="#000000" transform="translate(142,122)"/>
<path d="M0 0 C0.66 0.66 1.32 1.32 2 2 C1.01 2 0.02 2 -1 2 C-1.33 3.32 -1.66 4.64 -2 6 C-3.98 6 -5.96 6 -8 6 C-8.66 4.68 -9.32 3.36 -10 2 C-8.37828761 1.61102839 -6.75245075 1.23921702 -5.125 0.875 C-4.22007813 0.66617188 -3.31515625 0.45734375 -2.3828125 0.2421875 C-1.20332031 0.12230469 -1.20332031 0.12230469 0 0 Z " fill="#080808" transform="translate(52,107)"/>
<path d="M0 0 C1.5625 1.1875 1.5625 1.1875 3 3 C2.6875 5.6875 2.6875 5.6875 2 8 C-2 8 -2 8 -5 7 C-4.34 5.68 -3.68 4.36 -3 3 C-2.01 3 -1.02 3 0 3 C0 2.01 0 1.02 0 0 Z " fill="#F8F8F8" transform="translate(62,88)"/>
<path d="M0 0 C0.66 0.33 1.32 0.66 2 1 C2 1.33 2 1.66 2 2 C2.66 2.33 3.32 2.66 4 3 C4.625 5.5625 4.625 5.5625 5 8 C2 9 2 9 -0.1875 8.0625 C-0.785625 7.711875 -1.38375 7.36125 -2 7 C-2.125 4.625 -2.125 4.625 -2 2 C-1.34 1.34 -0.68 0.68 0 0 Z " fill="#FAFAFA" transform="translate(61,46)"/>
<path d="M0 0 C3.96 0.33 7.92 0.66 12 1 C12 1.99 12 2.98 12 4 C8.37 4 4.74 4 1 4 C0.67 2.68 0.34 1.36 0 0 Z " fill="#272727" transform="translate(93,66)"/>
<path d="M0 0 C-1 2 -1 2 -3 5 C-5.625 5.6875 -5.625 5.6875 -8 6 C-8 4.02 -8 2.04 -8 0 C-2.25 -1.125 -2.25 -1.125 0 0 Z " fill="#F9F9F9" transform="translate(247,99)"/>
<path d="M0 0 C-1.98 0.99 -1.98 0.99 -4 2 C-4 3.98 -4 5.96 -4 8 C-4.99 8.33 -5.98 8.66 -7 9 C-6.67 7.35 -6.34 5.7 -6 4 C-6.66 3.67 -7.32 3.34 -8 3 C-8.33 2.34 -8.66 1.68 -9 1 C-6.04335481 -0.4783226 -3.25770263 -0.06032783 0 0 Z " fill="#000000" transform="translate(229,119)"/>
<path d="M0 0 C0.66 0.33 1.32 0.66 2 1 C1.67 2.65 1.34 4.3 1 6 C1.66 6 2.32 6 3 6 C3 6.66 3 7.32 3 8 C0.36 7.34 -2.28 6.68 -5 6 C-5 5.34 -5 4.68 -5 4 C-4.01 4 -3.02 4 -2 4 C-1.34 2.68 -0.68 1.36 0 0 Z " fill="#F5F5F5" transform="translate(116,51)"/>
<path d="M0 0 C0.598125 0.495 1.19625 0.99 1.8125 1.5 C3.97029994 3.28276418 3.97029994 3.28276418 7 3 C7.33 3.99 7.66 4.98 8 6 C8.66 6.33 9.32 6.66 10 7 C8.68 7 7.36 7 6 7 C6 6.34 6 5.68 6 5 C5.01 5 4.02 5 3 5 C2.67 6.32 2.34 7.64 2 9 C0 3.375 0 3.375 0 0 Z " fill="#DBDBDB" transform="translate(36,44)"/>
<path d="M0 0 C1 1.33333333 2 2.66666667 3 4 C3.556875 4.70125 4.11375 5.4025 4.6875 6.125 C6 8 6 8 6 10 C4.1875 9.875 4.1875 9.875 2 9 C0.1875 6.125 0.1875 6.125 -1 3 C-0.67 2.01 -0.34 1.02 0 0 Z " fill="#646464" transform="translate(47,64)"/>
<path d="M0 0 C1.98 0 3.96 0 6 0 C4.02 0.99 4.02 0.99 2 2 C1.67 7.94 1.34 13.88 1 20 C0.67 20 0.34 20 0 20 C0 13.4 0 6.8 0 0 Z " fill="#DFDFDF" transform="translate(144,65)"/>
<path d="M0 0 C0.66 0 1.32 0 2 0 C2 0.66 2 1.32 2 2 C3.32 2.33 4.64 2.66 6 3 C5.38125 3.0825 4.7625 3.165 4.125 3.25 C1.81562433 3.81258459 1.81562433 3.81258459 0.75 6.0625 C0.5025 6.701875 0.255 7.34125 0 8 C-0.66666667 6 -1.33333333 4 -2 2 C-1.34 2 -0.68 2 0 2 C0 1.34 0 0.68 0 0 Z " fill="#8D8D8D" transform="translate(37,66)"/>
<path d="M0 0 C2.46800047 1.15173355 4.04783565 2.04783565 6 4 C5.625 7.125 5.625 7.125 5 10 C3.68 10.33 2.36 10.66 1 11 C1.350625 10.4225 1.70125 9.845 2.0625 9.25 C3.17403426 6.58231777 3.0271133 5.65337601 2 3 C1.34 2.01 0.68 1.02 0 0 Z " fill="#FFFFFF" transform="translate(243,81)"/>
<path d="M0 0 C0 0.66 0 1.32 0 2 C2.97 2 5.94 2 9 2 C9.33 2.66 9.66 3.32 10 4 C7.68690295 3.88658363 5.37449815 3.75896193 3.0625 3.625 C1.13083984 3.52058594 1.13083984 3.52058594 -0.83984375 3.4140625 C-2.40412109 3.20910156 -2.40412109 3.20910156 -4 3 C-4.33 2.34 -4.66 1.68 -5 1 C-3 0 -3 0 0 0 Z " fill="#1F1F1F" transform="translate(137,95)"/>
<path d="M0 0 C0.99 0.495 0.99 0.495 2 1 C2 1.66 2 2.32 2 3 C3.65 3 5.3 3 7 3 C7.66 4.32 8.32 5.64 9 7 C6.03 6.01 3.06 5.02 0 4 C0 2.68 0 1.36 0 0 Z " fill="#000000" transform="translate(230,116)"/>
<path d="M0 0 C2.97 0.495 2.97 0.495 6 1 C6 1.99 6 2.98 6 4 C3.69 3.67 1.38 3.34 -1 3 C-0.67 2.01 -0.34 1.02 0 0 Z " fill="#000000" transform="translate(69,109)"/>
<path d="M0 0 C0.99 0 1.98 0 3 0 C3.66 1.65 4.32 3.3 5 5 C3.35 5 1.7 5 0 5 C-0.33 4.01 -0.66 3.02 -1 2 C-0.67 1.34 -0.34 0.68 0 0 Z " fill="#1D1D1D" transform="translate(26,46)"/>
<path d="M0 0 C2.31 0 4.62 0 7 0 C7.33 1.32 7.66 2.64 8 4 C5.16032769 4 2.76264289 3.59732819 0 3 C0 2.01 0 1.02 0 0 Z " fill="#515151" transform="translate(36,32)"/>
<path d="M0 0 C0.99 0 1.98 0 3 0 C3 1.98 3 3.96 3 6 C2.01 6 1.02 6 0 6 C0 4.02 0 2.04 0 0 Z " fill="#0B0B0B" transform="translate(84,75)"/>
<path d="M0 0 C1.32 0.66 2.64 1.32 4 2 C1.03 4.475 1.03 4.475 -2 7 C-1.34 4.69 -0.68 2.38 0 0 Z " fill="#9A9A9A" transform="translate(90,41)"/>
<path d="M0 0 C0.99 0.33 1.98 0.66 3 1 C2.34 2.32 1.68 3.64 1 5 C-0.32 4.34 -1.64 3.68 -3 3 C-2.01 2.67 -1.02 2.34 0 2 C0 1.34 0 0.68 0 0 Z " fill="#484848" transform="translate(154,79)"/>
<path d="M0 0 C0.99 0.66 1.98 1.32 3 2 C3 2.66 3 3.32 3 4 C0.69 4 -1.62 4 -4 4 C-2.66666667 2.66666667 -1.33333333 1.33333333 0 0 Z " fill="#000000" transform="translate(197,127)"/>
<path d="M0 0 C2.97 0 5.94 0 9 0 C8.67 0.66 8.34 1.32 8 2 C5.69 2 3.38 2 1 2 C0.67 1.34 0.34 0.68 0 0 Z " fill="#000000" transform="translate(177,110)"/>
<path d="M0 0 C1.65 0 3.3 0 5 0 C4.01 1.485 4.01 1.485 3 3 C1.68 3 0.36 3 -1 3 C-0.67 2.01 -0.34 1.02 0 0 Z " fill="#000000" transform="translate(253,106)"/>
<path d="M0 0 C3.3 0.33 6.6 0.66 10 1 C10 1.33 10 1.66 10 2 C6.37 2 2.74 2 -1 2 C-0.67 1.34 -0.34 0.68 0 0 Z " fill="#000000" transform="translate(229,129)"/>
<path d="M0 0 C0.33 0.99 0.66 1.98 1 3 C-0.98 3 -2.96 3 -5 3 C-2.25 0 -2.25 0 0 0 Z " fill="#000000" transform="translate(138,120)"/>
<path d="M0 0 C0.66 0.33 1.32 0.66 2 1 C0.515 2.485 0.515 2.485 -1 4 C-1.99 3.67 -2.98 3.34 -4 3 C-2.68 2.01 -1.36 1.02 0 0 Z " fill="#000000" transform="translate(137,116)"/>
<path d="M0 0 C2.31 0 4.62 0 7 0 C7.33 0.66 7.66 1.32 8 2 C5.36 1.67 2.72 1.34 0 1 C0 0.67 0 0.34 0 0 Z " fill="#A2A2A2" transform="translate(230,65)"/>
<path d="M0 0 C0.33 0.66 0.66 1.32 1 2 C0.67 2.99 0.34 3.98 0 5 C-1.32 4.67 -2.64 4.34 -4 4 C-2.68 2.68 -1.36 1.36 0 0 Z " fill="#BFBFBF" transform="translate(100,46)"/>
<path d="M0 0 C2.33944736 0.28730055 4.6739143 0.61936779 7 1 C5.25 2.125 5.25 2.125 3 3 C0.75 2.125 0.75 2.125 -1 1 C-0.67 0.67 -0.34 0.34 0 0 Z " fill="#000000" transform="translate(234,114)"/>
<path d="M0 0 C0.66 0.99 1.32 1.98 2 3 C1.67 3.99 1.34 4.98 1 6 C0.34 5.34 -0.32 4.68 -1 4 C-0.625 1.875 -0.625 1.875 0 0 Z " fill="#AAAAAA" transform="translate(76,26)"/>
<path d="M0 0 C0.66 0.33 1.32 0.66 2 1 C2 1.66 2 2.32 2 3 C0.02 3 -1.96 3 -4 3 C-3.34 2.34 -2.68 1.68 -2 1 C-1.34 1.33 -0.68 1.66 0 2 C0 1.34 0 0.68 0 0 Z " fill="#000000" transform="translate(224,128)"/>
<path d="M0 0 C1.98 0 3.96 0 6 0 C4.68 0.99 3.36 1.98 2 3 C1.34 2.67 0.68 2.34 0 2 C0 1.34 0 0.68 0 0 Z " fill="#909090" transform="translate(27,59)"/>
<path d="M0 0 C0.99 0 1.98 0 3 0 C3.33 1.32 3.66 2.64 4 4 C3.34 4 2.68 4 2 4 C1.34 2.68 0.68 1.36 0 0 Z " fill="#000000" transform="translate(180,122)"/>
<path d="M0 0 C1.98 0.99 1.98 0.99 4 2 C4 2.99 4 3.98 4 5 C2.68 3.35 1.36 1.7 0 0 Z " fill="#FFFFFF" transform="translate(53,59)"/>
<path d="M0 0 C1.65 0 3.3 0 5 0 C5 0.66 5 1.32 5 2 C3.35 1.67 1.7 1.34 0 1 C0 0.67 0 0.34 0 0 Z " fill="#000000" transform="translate(234,126)"/>
<path d="M0 0 C1.98 0.495 1.98 0.495 4 1 C3.01 1.66 2.02 2.32 1 3 C0.34 2.67 -0.32 2.34 -1 2 C-0.67 1.34 -0.34 0.68 0 0 Z " fill="#000000" transform="translate(192,110)"/>
<path d="M0 0 C0.99 0 1.98 0 3 0 C2.67 0.99 2.34 1.98 2 3 C1.34 3 0.68 3 0 3 C0 2.01 0 1.02 0 0 Z " fill="#000000" transform="translate(76,110)"/>
<path d="M0 0 C3.875 1.75 3.875 1.75 5 4 C1.125 2.25 1.125 2.25 0 0 Z " fill="#FFFFFF" transform="translate(85,94)"/>
<path d="M0 0 C0.99 0 1.98 0 3 0 C2.67 1.65 2.34 3.3 2 5 C0 1.125 0 1.125 0 0 Z " fill="#BFBFBF" transform="translate(36,59)"/>
<path d="M0 0 C0.99 0.495 0.99 0.495 2 1 C1.67 2.32 1.34 3.64 1 5 C0.67 5 0.34 5 0 5 C0 3.35 0 1.7 0 0 Z " fill="#FFFFFF" transform="translate(75,56)"/>
<path d="M0 0 C1.32 0.33 2.64 0.66 4 1 C4 1.99 4 2.98 4 4 C2.68 2.68 1.36 1.36 0 0 Z " fill="#FFFFFF" transform="translate(241,56)"/>
<path d="M0 0 C1.32 0.33 2.64 0.66 4 1 C2.68 1.33 1.36 1.66 0 2 C0 1.34 0 0.68 0 0 Z " fill="#000000" transform="translate(135,129)"/>
<path d="M0 0 C2 1 2 1 3 3 C2.01 3.33 1.02 3.66 0 4 C0 2.68 0 1.36 0 0 Z " fill="#000000" transform="translate(230,124)"/>
<path d="M0 0 C2.31 0 4.62 0 7 0 C7 0.33 7 0.66 7 1 C4.69 1 2.38 1 0 1 C0 0.67 0 0.34 0 0 Z " fill="#000000" transform="translate(258,119)"/>
<path d="M0 0 C1.32 0.33 2.64 0.66 4 1 C2.68 1.33 1.36 1.66 0 2 C0 1.34 0 0.68 0 0 Z " fill="#0C0C0C" transform="translate(95,99)"/>
<path d="M0 0 C2.31 0 4.62 0 7 0 C7 0.33 7 0.66 7 1 C4.69 1 2.38 1 0 1 C0 0.67 0 0.34 0 0 Z " fill="#6D6D6D" transform="translate(106,75)"/>
<path d="M0 0 C0 0.66 0 1.32 0 2 C-1.32 1.67 -2.64 1.34 -4 1 C-2 0 -2 0 0 0 Z " fill="#000000" transform="translate(215,129)"/>
<path d="M0 0 C0.66 0 1.32 0 2 0 C1.67 1.32 1.34 2.64 1 4 C0.67 2.68 0.34 1.36 0 0 Z " fill="#000000" transform="translate(226,124)"/>
<path d="M0 0 C0.99 0.33 1.98 0.66 3 1 C1.68 1.33 0.36 1.66 -1 2 C-0.67 1.34 -0.34 0.68 0 0 Z " fill="#000000" transform="translate(242,122)"/>
<path d="M0 0 C0.99 0.33 1.98 0.66 3 1 C3 1.66 3 2.32 3 3 C2.01 2.67 1.02 2.34 0 2 C0 1.34 0 0.68 0 0 Z " fill="#FFFFFF" transform="translate(153,66)"/>
<path d="M0 0 C1.65 0 3.3 0 5 0 C5 0.33 5 0.66 5 1 C3.35 1 1.7 1 0 1 C0 0.67 0 0.34 0 0 Z " fill="#000000" transform="translate(184,130)"/>
<path d="M0 0 C0.99 0.33 1.98 0.66 3 1 C2.01 1.33 1.02 1.66 0 2 C0 1.34 0 0.68 0 0 Z " fill="#000000" transform="translate(229,121)"/>
<path d="M0 0 C0.66 0.33 1.32 0.66 2 1 C0.68 1.33 -0.64 1.66 -2 2 C-1.34 1.34 -0.68 0.68 0 0 Z " fill="#000000" transform="translate(175,121)"/>
<path d="M0 0 C0.99 0.99 1.98 1.98 3 3 C2.01 2.67 1.02 2.34 0 2 C0 1.34 0 0.68 0 0 Z " fill="#7F7F7F" transform="translate(189,107)"/>
<path d="M0 0 C0.99 0.33 1.98 0.66 3 1 C2.01 1.33 1.02 1.66 0 2 C0 1.34 0 0.68 0 0 Z " fill="#000000" transform="translate(187,109)"/>
<path d="M0 0 C1.98 0.99 1.98 0.99 4 2 C2.68 1.67 1.36 1.34 0 1 C0 0.67 0 0.34 0 0 Z " fill="#FFFFFF" transform="translate(85,105)"/>
<path d="M0 0 C0.66 0.66 1.32 1.32 2 2 C1.01 2 0.02 2 -1 2 C-0.67 1.34 -0.34 0.68 0 0 Z " fill="#999999" transform="translate(192,86)"/>
<path d="M0 0 C0.66 0 1.32 0 2 0 C2 0.66 2 1.32 2 2 C1.01 1.67 0.02 1.34 -1 1 C-0.67 0.67 -0.34 0.34 0 0 Z " fill="#FFFFFF" transform="translate(106,40)"/>
<path d="M0 0 C0.66 0.66 1.32 1.32 2 2 C1.01 1.67 0.02 1.34 -1 1 C-0.67 0.67 -0.34 0.34 0 0 Z " fill="#000000" transform="translate(217,129)"/>
<path d="M0 0 C4 1 4 1 4 1 Z " fill="#000000" transform="translate(232,128)"/>
<path d="M0 0 C0.99 0 1.98 0 3 0 C2.67 0.66 2.34 1.32 2 2 C1.34 1.34 0.68 0.68 0 0 Z " fill="#000000" transform="translate(196,125)"/>
<path d="M0 0 C4 1 4 1 4 1 Z " fill="#000000" transform="translate(259,121)"/>
<path d="M0 0 C0.66 0 1.32 0 2 0 C2 0.66 2 1.32 2 2 C1.34 2 0.68 2 0 2 C0 1.34 0 0.68 0 0 Z " fill="#000000" transform="translate(148,120)"/>
<path d="M0 0 C0.66 0.66 1.32 1.32 2 2 C1.01 1.67 0.02 1.34 -1 1 C-0.67 0.67 -0.34 0.34 0 0 Z " fill="#000000" transform="translate(140,117)"/>
<path d="M0 0 C0.66 0 1.32 0 2 0 C2 0.66 2 1.32 2 2 C1.34 2 0.68 2 0 2 C0 1.34 0 0.68 0 0 Z " fill="#000000" transform="translate(237,117)"/>
<path d="M0 0 C0.66 0 1.32 0 2 0 C2 0.66 2 1.32 2 2 C1.34 2 0.68 2 0 2 C0 1.34 0 0.68 0 0 Z " fill="#000000" transform="translate(148,117)"/>
<path d="M0 0 C0.66 0.66 1.32 1.32 2 2 C1.01 1.67 0.02 1.34 -1 1 C-0.67 0.67 -0.34 0.34 0 0 Z " fill="#000000" transform="translate(135,113)"/>
<path d="M0 0 C0.66 0.66 1.32 1.32 2 2 C1.01 1.67 0.02 1.34 -1 1 C-0.67 0.67 -0.34 0.34 0 0 Z " fill="#000000" transform="translate(152,111)"/>
<path d="M0 0 C0.66 0.66 1.32 1.32 2 2 C1.01 1.67 0.02 1.34 -1 1 C-0.67 0.67 -0.34 0.34 0 0 Z " fill="#3F3F3F" transform="translate(91,97)"/>
<path d="M0 0 C0.99 0.33 1.98 0.66 3 1 C2.01 1 1.02 1 0 1 C0 0.67 0 0.34 0 0 Z " fill="#FFFFFF" transform="translate(218,91)"/>
<path d="M0 0 C1 4 1 4 1 4 Z " fill="#FFFFFF" transform="translate(82,82)"/>
<path d="M0 0 C0.99 0.33 1.98 0.66 3 1 C2.01 1 1.02 1 0 1 C0 0.67 0 0.34 0 0 Z " fill="#FFFFFF" transform="translate(36,42)"/>
<path d="M0 0 C0 3 0 3 0 3 Z " fill="#FFFFFF" transform="translate(59,30)"/>
<path d="M0 0 C0.99 0.495 0.99 0.495 2 1 C1.67 1.66 1.34 2.32 1 3 C0.67 2.01 0.34 1.02 0 0 Z " fill="#FFFFFF" transform="translate(56,28)"/>
<path d="M0 0 C3 1 3 1 3 1 Z " fill="#000000" transform="translate(201,128)"/>
<path d="M0 0 C0.99 0.495 0.99 0.495 2 1 C1.01 1.495 1.01 1.495 0 2 C0 1.34 0 0.68 0 0 Z " fill="#000000" transform="translate(234,123)"/>
<path d="M0 0 C3 1 3 1 3 1 Z " fill="#000000" transform="translate(253,121)"/>
<path d="M0 0 C0.66 0.66 1.32 1.32 2 2 C1.34 2 0.68 2 0 2 C0 1.34 0 0.68 0 0 Z " fill="#000000" transform="translate(140,120)"/>
<path d="M0 0 C0.99 0.495 0.99 0.495 2 1 C1.01 1.495 1.01 1.495 0 2 C0 1.34 0 0.68 0 0 Z " fill="#000000" transform="translate(179,118)"/>
<path d="M0 0 C0.66 0.66 1.32 1.32 2 2 C1.34 2 0.68 2 0 2 C0 1.34 0 0.68 0 0 Z " fill="#000000" transform="translate(144,117)"/>
<path d="M0 0 C3 1 3 1 3 1 Z " fill="#000000" transform="translate(181,117)"/>
<path d="M0 0 C3 1 3 1 3 1 Z " fill="#000000" transform="translate(65,109)"/>
<path d="M0 0 C0.66 0.66 1.32 1.32 2 2 C1.34 2 0.68 2 0 2 C0 1.34 0 0.68 0 0 Z " fill="#FFFFFF" transform="translate(194,88)"/>
<path d="M0 0 C0.66 0 1.32 0 2 0 C1.67 0.66 1.34 1.32 1 2 C0.67 1.34 0.34 0.68 0 0 Z " fill="#FFFFFF" transform="translate(238,67)"/>
<path d="" fill="#FFFFFF" transform="translate(0,0)"/>
<path d="M0 0 C0.66 0.66 1.32 1.32 2 2 C1.34 2 0.68 2 0 2 C0 1.34 0 0.68 0 0 Z " fill="#FFFFFF" transform="translate(39,44)"/>
<path d="M0 0 C0.66 0 1.32 0 2 0 C1.67 0.66 1.34 1.32 1 2 C0.67 1.34 0.34 0.68 0 0 Z " fill="#FFFFFF" transform="translate(34,40)"/>
<path d="M0 0 C0.66 0.66 1.32 1.32 2 2 C1.34 2 0.68 2 0 2 C0 1.34 0 0.68 0 0 Z " fill="#FFFFFF" transform="translate(78,32)"/>
<path d="M0 0 C2 1 2 1 2 1 Z " fill="#000000" transform="translate(190,130)"/>
<path d="M0 0 C2 1 2 1 2 1 Z " fill="#000000" transform="translate(140,130)"/>
<path d="M0 0 C2 1 2 1 2 1 Z " fill="#000000" transform="translate(132,130)"/>
<path d="M0 0 C2 1 2 1 2 1 Z " fill="#000000" transform="translate(241,120)"/>
<path d="" fill="#000000" transform="translate(0,0)"/>
<path d="M0 0 C2 1 2 1 2 1 Z " fill="#000000" transform="translate(181,119)"/>
<path d="M0 0 C2 1 2 1 2 1 Z " fill="#000000" transform="translate(150,119)"/>
<path d="M0 0 C2 1 2 1 2 1 Z " fill="#000000" transform="translate(241,117)"/>
<path d="" fill="#000000" transform="translate(0,0)"/>
<path d="M0 0 C2 1 2 1 2 1 Z " fill="#000000" transform="translate(146,116)"/>
<path d="M0 0 C2 1 2 1 2 1 Z " fill="#000000" transform="translate(263,115)"/>
<path d="M0 0 C2 1 2 1 2 1 Z " fill="#000000" transform="translate(178,113)"/>
<path d="M0 0 C2 1 2 1 2 1 Z " fill="#000000" transform="translate(154,113)"/>
<path d="M0 0 C2 1 2 1 2 1 Z " fill="#FFFFFF" transform="translate(138,108)"/>
<path d="" fill="#FFFFFF" transform="translate(0,0)"/>
<path d="" fill="#FFFFFF" transform="translate(0,0)"/>
<path d="" fill="#FFFFFF" transform="translate(0,0)"/>
<path d="M0 0 C2 1 2 1 2 1 Z " fill="#7F7F7F" transform="translate(45,99)"/>
<path d="" fill="#FFFFFF" transform="translate(0,0)"/>
<path d="" fill="#7F7F7F" transform="translate(0,0)"/>
<path d="M0 0 C2 1 2 1 2 1 Z " fill="#000000" transform="translate(231,85)"/>
<path d="" fill="#000000" transform="translate(0,0)"/>
<path d="M0 0 C2 1 2 1 2 1 Z " fill="#FFFFFF" transform="translate(43,67)"/>
<path d="" fill="#FFFFFF" transform="translate(0,0)"/>
<path d="M0 0 C2 1 2 1 2 1 Z " fill="#000000" transform="translate(239,55)"/>
<path d="" fill="#FFFFFF" transform="translate(0,0)"/>
<path d="M0 0 C2 1 2 1 2 1 Z " fill="#FFFFFF" transform="translate(61,34)"/>
<path d="" fill="#FFFFFF" transform="translate(0,0)"/>
<path d="M0 0 C2 1 2 1 2 1 Z " fill="#FFFFFF" transform="translate(49,26)"/>
<path d="" fill="#000000" transform="translate(0,0)"/>
<path d="" fill="#000000" transform="translate(0,0)"/>
<path d="" fill="#000000" transform="translate(0,0)"/>
<path d="" fill="#000000" transform="translate(0,0)"/>
<path d="" fill="#000000" transform="translate(0,0)"/>
<path d="" fill="#000000" transform="translate(0,0)"/>
<path d="" fill="#000000" transform="translate(0,0)"/>
<path d="" fill="#000000" transform="translate(0,0)"/>
<path d="" fill="#000000" transform="translate(0,0)"/>
<path d="" fill="#000000" transform="translate(0,0)"/>
<path d="" fill="#000000" transform="translate(0,0)"/>
<path d="" fill="#000000" transform="translate(0,0)"/>
<path d="" fill="#000000" transform="translate(0,0)"/>
<path d="" fill="#000000" transform="translate(0,0)"/>
<path d="" fill="#FFFFFF" transform="translate(0,0)"/>
<path d="" fill="#FFFFFF" transform="translate(0,0)"/>
<path d="" fill="#FFFFFF" transform="translate(0,0)"/>
<path d="" fill="#FFFFFF" transform="translate(0,0)"/>
<path d="" fill="#FFFFFF" transform="translate(0,0)"/>
<path d="" fill="#FFFFFF" transform="translate(0,0)"/>
<path d="" fill="#FFFFFF" transform="translate(0,0)"/>
<path d="" fill="#FFFFFF" transform="translate(0,0)"/>
<path d="" fill="#FFFFFF" transform="translate(0,0)"/>
<path d="" fill="#000000" transform="translate(0,0)"/>
<path d="" fill="#FFFFFF" transform="translate(0,0)"/>
<path d="" fill="#FFFFFF" transform="translate(0,0)"/>
<path d="" fill="#FFFFFF" transform="translate(0,0)"/>
<path d="" fill="#FFFFFF" transform="translate(0,0)"/>
<path d="" fill="#FFFFFF" transform="translate(0,0)"/>
<path d="" fill="#FFFFFF" transform="translate(0,0)"/>
<path d="" fill="#FFFFFF" transform="translate(0,0)"/>
<path d="" fill="#FFFFFF" transform="translate(0,0)"/>
<path d="" fill="#FFFFFF" transform="translate(0,0)"/>
<path d="" fill="#FFFFFF" transform="translate(0,0)"/>
<path d="" fill="#FFFFFF" transform="translate(0,0)"/>
<path d="" fill="#FFFFFF" transform="translate(0,0)"/>
<path d="" fill="#FFFFFF" transform="translate(0,0)"/>
<path d="" fill="#FFFFFF" transform="translate(0,0)"/>
<path d="" fill="#FFFFFF" transform="translate(0,0)"/>
<path d="" fill="#FFFFFF" transform="translate(0,0)"/>
<path d="" fill="#FFFFFF" transform="translate(0,0)"/>
<path d="" fill="#FFFFFF" transform="translate(0,0)"/>
<path d="" fill="#FFFFFF" transform="translate(0,0)"/>
<path d="" fill="#FFFFFF" transform="translate(0,0)"/>
<path d="" fill="#FFFFFF" transform="translate(0,0)"/>
<path d="" fill="#FFFFFF" transform="translate(0,0)"/>
<path d="" fill="#FFFFFF" transform="translate(0,0)"/>
<path d="" fill="#FFFFFF" transform="translate(0,0)"/>
<path d="" fill="#000000" transform="translate(0,0)"/>
</svg>
